<svg id="Layer_3" data-name="Layer 3" xmlns="http://www.w3.org/2000/svg" viewBox="0 0 1136.34 729"><defs><style>.cls-1{fill:#fff;}</style></defs><path d="M1214.82,824.76a68.33,68.33,0,0,1-9-.6,28.61,28.61,0,0,1-14.46-3.9l0,0-.07,0a28.63,28.63,0,0,1-12.58-7.33c-10.34-8-17.47-18.33-20.67-29.92l-2-15.29,2.06-15.3c14.61-37.2,31.81-71.76,46.72-100.66,4.7-9.11,9.39-18.41,13.94-27.41l3.27-6.47-1.82,1.48c-19.56,15.89-39.2,32-58.37,47.74-7.4,6.09-15,12.21-22.43,18.13-25,20-50.78,40.72-72.74,64.51-9,9.78-25.43,16.87-39,16.87-.55,0-1.09,0-1.63,0a68.35,68.35,0,0,1-29.07-7.87c-9.89-5.22-18.24-15-23.52-27.5a43.55,43.55,0,0,1-5-22.14l.45-3.32-1,1c-27.93,27.24-53.18,52-77.2,75.84-10.4,10.3-24.47,16.13-40.7,16.85-.61,0-1.21,0-1.81,0-10.95,0-22.68-4.4-33-12.39-9.83-7.59-16.57-17.37-20.63-29.9a43.63,43.63,0,0,1-1-22.87,43,43,0,0,1,6.82-21.42c19-43.36,44.88-82.54,72-122.19l7.55-11.06-3,2.63C864.48,593,852.11,604,840,614.92c-22.91,20.55-45.86,42.79-70.14,68l-1.75,1.81c-21.49,22.32-43.71,45.39-67.7,65.81-13.18,11.22-26.24,16.92-38.79,16.92-.63,0-1.26,0-1.89-.05a68.28,68.28,0,0,1-29.08-7.86c-9.88-5.22-18.23-15-23.51-27.5a43.55,43.55,0,0,1-5-22.14l2.06-15.32a477,477,0,0,1,24.68-51.52l1.45-2.58-2.22,2c-21.05,18.66-41.9,37.38-62,55.65-11.8,10.75-26,16.91-38.85,16.91-.61,0-1.22,0-1.82,0a68.29,68.29,0,0,1-29.08-7.87c-9.88-5.22-18.23-15-23.51-27.49a43.49,43.49,0,0,1-5-22.15L470,642.15c11.11-28.4,24.62-53.06,41.28-75.37l1.27-1.67,1.59-2.1-1,0-1.62,0a60.58,60.58,0,0,1-30.16-7.94,58.15,58.15,0,0,1-20.64-20.64,57.49,57.49,0,0,1-7.85-29c-2-16,.44-32.11,3.37-48.62a223.24,223.24,0,0,1,10.08-36.4c7.69-21.57,17.19-42.9,26.38-63.52l3.19-7.18c11-24.74,20.95-44.74,31.35-63a471,471,0,0,1,47-67.21A318.87,318.87,0,0,1,598.23,194c3.33-3.2,6.85-6.31,10.26-9.33a207.06,207.06,0,0,0,15.85-15c9.27-10.09,23.72-16.07,40.68-16.83.65,0,1.3-.05,2-.05,13.09,0,26.84,6,38.72,16.91,10.07,9.24,16.83,25.59,16.83,40.66,0,14.61-5.83,28.68-16.86,40.69a240.9,240.9,0,0,1-17.9,17c-4.15,3.69-8.44,7.49-12.47,11.43a286.23,286.23,0,0,0-22.54,24.85,416.52,416.52,0,0,0-26,40.21l-1.12,1.94,1.84-1.29c54-37.86,109.34-74.12,166-111,32.72-21.33,66.17-42.72,98.52-63.42l4.76-3c21-13.42,37-23.75,52-33.49q4.08-2.67,8.14-5.37c5.67-3.77,11.54-7.66,17.44-11.25,2.31-1.4,4.57-2.94,6.76-4.43,1.71-1.17,3.48-2.37,5.25-3.5,7.41-4.7,16-8,23.52-10.78a44.53,44.53,0,0,1,13.32-2.08,81.39,81.39,0,0,1,30.95,7.88,68.79,68.79,0,0,1,20.66,20.67,46.28,46.28,0,0,1,6.45,16.91l.11.57.55-.19a57.79,57.79,0,0,1,18.77-3.13l15.35,2.06c14.67,3.35,25,14.35,29.82,20.61,7.7,10,11.75,21.38,12.35,34.87a46.82,46.82,0,0,1-4,20.54l-.66,1.54,1.39-.92c22.57-15,43.3-27.7,63.36-38.85a64.23,64.23,0,0,1,30.21-7.9,46,46,0,0,1,14.1,2.09,68.49,68.49,0,0,1,25.42,14.82c8.36,7.67,14,19.4,15.8,33a43.54,43.54,0,0,1-.75,22l-.35,1.19,1.08-.62c7.06-4.08,16-6.23,25.74-6.23a66.24,66.24,0,0,1,9,.61,28.67,28.67,0,0,1,14.46,3.89l.06,0,.06,0a28.59,28.59,0,0,1,12.58,7.34c10.35,8,17.48,18.32,20.67,29.92l2,15.29-2.06,15.31c-6.57,18.71-16.68,34.89-33.78,54.1-4.83,5.43-10,10.71-15,15.81-1.69,1.72-3.39,3.45-5.07,5.18l.66.74q8.21-6.27,16.4-12.57c1.83-1.45,3.63-2.89,5.43-4.34,16.28-13.05,31.64-25.38,52.2-31a57,57,0,0,1,15.08-2,57.5,57.5,0,0,1,55.68,72.79c-8.8,20.86-16.67,35.83-26.27,50-3.5,5.14-7.16,10.3-10.7,15.29-4.55,6.42-9.26,13.05-13.67,19.73q-1.56,2.38-3.11,4.77l-3.33,5.1L1423,502a296.1,296.1,0,0,1,73-39.55,39.76,39.76,0,0,1,14-2.4c9.5,0,20.25,2.92,30.28,8.22,11.6,6.12,21.23,18.66,26.43,34.39,2.26,6.85,2.92,14.36,3.57,21.62v.12a43.86,43.86,0,0,1,.08,7.13c-.62,8.51-2.07,17.09-3.48,25.39l-.63,3.74c-.76,4.55-1.48,9.19-2.18,13.66-1,6.66-2.11,13.55-3.33,20.29-1.48,8.17-3.1,16.47-4.67,24.49-.54,2.77-1.08,5.53-1.61,8.3l-.08.37.34.17a71,71,0,0,1,15.86,11.1c10.07,9.25,16.83,25.59,16.83,40.67,0,14.86-6.76,31.2-16.83,40.66-3.3,3.1-6.62,6.28-9.82,9.35-14,13.42-28.44,27.3-45.41,37.89-7.76,4.85-17.38,7.41-27.82,7.41a66,66,0,0,1-8.84-.6,28.61,28.61,0,0,1-14.46-3.9l-.06,0-.06,0a28.58,28.58,0,0,1-12.58-7.33c-10.34-8-17.47-18.33-20.67-29.92-3.1-11.27-1.71-22.87,0-30.61.25-1.12.46-2.25.68-3.38l0-.26c.59-6.82.9-13.71,1.2-20.37.19-4.31.39-8.76.66-13.13.5-8,1.42-16.58,2.79-26.25l.19-1.27-1.84,1.51c-34.84,28.53-66.85,59-93.56,85q-9.27,9-18.52,18.12c-9,8.82-18.3,17.94-27.51,26.86-4.4,4.27-8.72,8.67-12.91,12.92-12.64,12.86-24.58,25-39.65,35C1233.2,823.48,1222.32,824.76,1214.82,824.76Z" transform="translate(-451.58 -96.27)"/><path class="cls-1" d="M1023.07,97.27a43.11,43.11,0,0,1,9.42,1l.09,0h.09a42.36,42.36,0,0,1,21.07,6.73,68.18,68.18,0,0,1,20.52,20.52,45.65,45.65,0,0,1,6.38,16.73l.21,1.14,1.1-.38a57.24,57.24,0,0,1,18.54-3.1l5.07.68L1115.8,142c14.54,3.33,24.74,14.22,29.53,20.42,7.64,9.9,11.65,21.21,12.25,34.59a46.3,46.3,0,0,1-3.95,20.33l-1.31,3.08,2.78-1.86c22.56-15,43.27-27.68,63.32-38.82a63.72,63.72,0,0,1,30-7.84,45.34,45.34,0,0,1,13.95,2.07,68.11,68.11,0,0,1,25.24,14.71c8.27,7.59,13.83,19.21,15.64,32.71v.09a43,43,0,0,1-.75,21.69l-.7,2.39,2.16-1.25c7-4,15.8-6.16,25.49-6.16a67.09,67.09,0,0,1,8.93.6h.13a28,28,0,0,1,14.14,3.83l.11.06.12,0a28.13,28.13,0,0,1,12.37,7.21l0,.05,0,0c10.19,7.88,17.26,18.09,20.43,29.55l2,15.23-2,15.19c-6.55,18.63-16.62,34.75-33.66,53.88-4.83,5.43-10,10.71-15,15.81q-2.54,2.58-5.06,5.17l1.33,1.49q8.21-6.27,16.41-12.58,2.73-2.16,5.43-4.34c16.23-13,31.56-25.31,52-30.94a56.08,56.08,0,0,1,14.95-2,57,57,0,0,1,55.22,72.09c-8.81,20.87-16.65,35.79-26.23,49.88-3.49,5.15-7.15,10.3-10.69,15.29-4.55,6.42-9.26,13.06-13.68,19.75q-1.56,2.37-3.11,4.76l-1.82,2.79-3,4.64,4.46-3.29a296,296,0,0,1,72.91-39.49,39.43,39.43,0,0,1,13.84-2.36c9.42,0,20.09,2.9,30,8.16,11.48,6.07,21,18.5,26.18,34.11,2.25,6.79,2.91,14.27,3.55,21.5v.12a44.09,44.09,0,0,1,.09,7.05c-.63,8.48-2.08,17-3.48,25.33l-.63,3.76c-.76,4.55-1.48,9.18-2.18,13.66-1,6.66-2.11,13.54-3.33,20.28-1.48,8.17-3.1,16.47-4.67,24.49l-1.62,8.29-.14.74.67.35a70,70,0,0,1,15.75,11c10,9.16,16.67,25.35,16.67,40.3,0,14.73-6.7,30.93-16.68,40.3-3.3,3.1-6.61,6.28-9.82,9.35-14,13.4-28.4,27.26-45.32,37.82-7.69,4.8-17.22,7.34-27.56,7.34a66.75,66.75,0,0,1-8.78-.59h-.13a28.1,28.1,0,0,1-14.14-3.83l-.11-.06-.12,0a28.11,28.11,0,0,1-12.37-7.2l0,0,0,0c-10.21-7.88-17.28-18.13-20.44-29.61-3.08-11.17-1.7-22.68,0-30.37.24-1.1.45-2.21.66-3.28l.07-.38v-.1c.59-6.77.9-13.66,1.2-20.33.19-4.3.39-8.76.66-13.13.5-8,1.41-16.56,2.79-26.2l.36-2.55-2,1.63-.4.33-.44.36c-34.85,28.55-66.87,59-93.59,85.07-6.2,6-12.5,12.22-18.58,18.19-9,8.8-18.26,17.9-27.44,26.79-4.41,4.27-8.74,8.67-12.92,12.93-12.63,12.85-24.55,25-39.57,34.93-9.15,6-19.93,7.33-27.36,7.33a67.56,67.56,0,0,1-9-.61h-.13a28,28,0,0,1-14.14-3.82l-.11-.06-.12,0a28,28,0,0,1-12.37-7.21l0,0,0,0c-10.19-7.87-17.25-18.09-20.43-29.55l-2-15.22,2-15.18c14.59-37.14,31.78-71.67,46.67-100.55,4.7-9.11,9.4-18.41,13.94-27.4l2.22-4.39,2.11-4.18-3.63,2.95c-19.59,15.91-39.23,32-58.38,47.74-7.39,6.09-15,12.21-22.41,18.13-25,20-50.82,40.74-72.81,64.56-8.79,9.53-25.4,16.71-38.64,16.71-.54,0-1.08,0-1.61,0a67.88,67.88,0,0,1-28.86-7.81c-9.78-5.17-18.05-14.85-23.29-27.25v0l0,0a42.91,42.91,0,0,1-4.89-21.8l.25-1.88.39-2.88-2.08,2c-27.93,27.25-53.19,52.06-77.21,75.85-10.3,10.21-24.26,16-40.37,16.7-.58,0-1.18,0-1.78,0-10.84,0-22.46-4.36-32.72-12.29-9.74-7.52-16.43-17.22-20.45-29.64a43.24,43.24,0,0,1-1-22.63l0-.08v-.09a42.33,42.33,0,0,1,6.73-21.08l0-.07,0-.07c19-43.25,44.82-82.41,71.88-122l4.48-6.56.83-1.22,4.48-6.56-6,5.25c-12.24,10.78-24.61,21.77-36.77,32.68-22.92,20.55-45.87,42.8-70.17,68l-1.74,1.8c-21.49,22.31-43.7,45.37-67.67,65.78C687,761.3,674,767,661.58,767c-.62,0-1.25,0-1.87-.05a67.73,67.73,0,0,1-28.86-7.8c-9.78-5.17-18.05-14.85-23.29-27.25l0,0,0,0A43,43,0,0,1,602.64,710l1-7.66,1-7.58a474.14,474.14,0,0,1,24.63-51.42l2.9-5.16-4.44,3.93c-21.09,18.69-41.95,37.42-62,55.65-11.71,10.67-25.75,16.78-38.51,16.78-.6,0-1.21,0-1.8,0a67.7,67.7,0,0,1-28.86-7.81c-9.79-5.17-18.06-14.84-23.29-27.25l0,0,0,0a42.88,42.88,0,0,1-4.88-21.8l2.05-15.26c11.09-28.33,24.57-52.93,41.19-75.19.43-.58.87-1.15,1.31-1.72.31-.41.62-.81.92-1.22l1.26-1.66-2.08.06-1.61,0a60,60,0,0,1-29.9-7.87,57,57,0,0,1-28.25-49.25v-.12c-2-15.84.45-31.94,3.37-48.41a223,223,0,0,1,10.06-36.32c7.69-21.56,17.18-42.88,26.37-63.49,1.06-2.4,2.13-4.79,3.19-7.18A688.16,688.16,0,0,1,527.62,287a469.21,469.21,0,0,1,46.93-67.14,317.82,317.82,0,0,1,24-25.54c3.32-3.19,6.84-6.3,10.25-9.31A211.8,211.8,0,0,0,624.71,170c9.18-10,23.5-15.92,40.33-16.67.64,0,1.29-.05,1.93-.05,13,0,26.6,6,38.38,16.78,10,9.15,16.67,25.35,16.67,40.29,0,14.48-5.78,28.43-16.73,40.36a246.13,246.13,0,0,1-17.86,17c-4.16,3.69-8.45,7.5-12.49,11.44A288.5,288.5,0,0,0,652.33,304a420.4,420.4,0,0,0-26.05,40.24l-2.23,3.88,3.68-2.57c54-37.85,109.33-74.12,165.94-111,32.72-21.32,66.16-42.72,98.5-63.41l4.78-3c20.95-13.4,37-23.73,52-33.49,2.72-1.78,5.47-3.61,8.14-5.38,5.67-3.76,11.53-7.65,17.42-11.23,2.32-1.41,4.59-3,6.78-4.45,1.71-1.16,3.47-2.37,5.24-3.49,7.36-4.67,16-8,23.37-10.71a44,44,0,0,1,13.2-2.07m0-1a44.93,44.93,0,0,0-13.5,2.11c-8,3-16.32,6.2-23.61,10.83-4,2.57-7.9,5.43-12,7.92-8.68,5.28-17.07,11.08-25.59,16.63q-25.9,16.86-52,33.49c-34.49,22.06-69,44.1-103.28,66.47-55.76,36.35-111.45,72.85-166,111a420.28,420.28,0,0,1,26-40.13,290.41,290.41,0,0,1,22.49-24.81c9.93-9.69,21-18.24,30.4-28.46,10.34-11.26,17-25.49,17-41,0-14.23-6.32-31.23-17-41s-24.34-17-39.06-17c-.65,0-1.31,0-2,.05-15,.67-30.57,5.6-41,17-8.06,8.78-17.52,16.08-26.09,24.32a317,317,0,0,0-24.1,25.62,468.23,468.23,0,0,0-47,67.29,699.56,699.56,0,0,0-31.38,63c-10.36,23.33-21,46.67-29.58,70.73a226.73,226.73,0,0,0-10.1,36.48c-2.82,15.87-5.43,32.56-3.38,48.71a57.71,57.71,0,0,0,7.92,29.29,58.34,58.34,0,0,0,20.82,20.82,61.23,61.23,0,0,0,30.41,8l1.64,0c-.75,1-1.5,2-2.24,2.94-17.5,23.44-30.71,48.28-41.37,75.54l-2.07,15.42a43.65,43.65,0,0,0,5,22.36c4.7,11.15,12.74,21.93,23.74,27.75a68.85,68.85,0,0,0,29.28,7.92c.62,0,1.23,0,1.85,0,14.51,0,28.79-7.58,39.18-17q30.79-28,62-55.65a478.58,478.58,0,0,0-24.74,51.64l-2.07,15.43a43.71,43.71,0,0,0,5,22.35c4.7,11.15,12.74,21.94,23.74,27.75a68.79,68.79,0,0,0,29.29,7.92c.64,0,1.27.05,1.91.05,14.87,0,28.2-7.75,39.12-17,24.64-21,47-44.37,69.48-67.65,22.65-23.51,45.81-46.18,70.11-68q18.32-16.41,36.77-32.67l-5.3,7.77c-26.66,39.05-52.94,78.78-72,122.21a43.19,43.19,0,0,0-6.89,21.58,43.88,43.88,0,0,0,1,23.13c4,12.24,10.57,22.25,20.79,30.14,9.32,7.2,21.24,12.5,33.33,12.5.61,0,1.22,0,1.83,0,15.43-.69,29.85-5.92,41-17q38.45-38.08,77.2-75.85l-.26,1.93a43.77,43.77,0,0,0,5,22.36c4.71,11.14,12.74,21.93,23.74,27.74a68.79,68.79,0,0,0,29.29,7.92c.54,0,1.09,0,1.65,0,13.6,0,30.33-7.22,39.38-17,28.45-30.83,62.82-56,95.11-82.59q29.12-24,58.38-47.74c-5.36,10.6-10.71,21.21-16.16,31.78-17,33-33.19,66.2-46.76,100.76l-2.07,15.43,2.07,15.42c3.37,12.22,10.89,22.49,20.8,30.14a57.05,57.05,0,0,0,27.44,11.42,67.79,67.79,0,0,0,9.09.62c9.74,0,19.83-2.15,27.91-7.5,20.28-13.43,35.37-31.26,52.63-48,15.41-14.93,30.67-30,46-45,30.19-29.43,60.89-58.29,93.53-85l.84-.7c-1.25,8.73-2.25,17.49-2.79,26.29-.7,11.14-.9,22.32-1.86,33.44-.23,1.21-.46,2.42-.73,3.62-2.2,9.94-2.73,20.95,0,30.85,3.36,12.22,10.89,22.49,20.8,30.14a56.94,56.94,0,0,0,27.44,11.43,67.57,67.57,0,0,0,8.91.6c9.78,0,19.67-2.23,28.09-7.49,20.88-13,37.53-30.61,55.3-47.29,10.63-10,17-26.63,17-41,0-14.23-6.32-31.23-17-41a72,72,0,0,0-16-11.19c2.12-10.93,4.31-21.85,6.28-32.79,2-11.29,3.62-22.64,5.51-33.95,1.62-9.69,3.4-19.39,4.12-29.19a43.42,43.42,0,0,0-.09-7.21c-.63-7.18-1.3-14.91-3.6-21.85-4.52-13.68-13.48-27.71-26.66-34.67-9-4.76-19.9-8.28-30.52-8.28a40.23,40.23,0,0,0-14.19,2.43,297.12,297.12,0,0,0-73.15,39.62c1.64-2.52,3.27-5,4.93-7.55,7.83-11.87,16.37-23.26,24.36-35,10.87-16,18.81-32.26,26.35-50.12a58,58,0,0,0-56.17-73.42,57.51,57.51,0,0,0-15.21,2c-23,6.32-39.68,21.08-57.8,35.47l-16.4,12.57c6.76-7,13.68-13.76,20.13-21,14.91-16.75,26.45-33.12,33.89-54.32l2.07-15.42-2.07-15.43c-3.36-12.21-10.89-22.49-20.79-30.14a29,29,0,0,0-12.81-7.46,28.93,28.93,0,0,0-14.64-4,67.47,67.47,0,0,0-9.06-.61c-9,0-18.24,1.83-26,6.3a43.76,43.76,0,0,0,.77-22.19c-1.64-12.18-6.64-24.76-16-33.32a69.11,69.11,0,0,0-25.6-14.92,46.28,46.28,0,0,0-14.26-2.12,64.59,64.59,0,0,0-30.45,8c-21.69,12-42.74,25.14-63.39,38.86a47.19,47.19,0,0,0,4-20.76c-.59-13.1-4.4-24.73-12.46-35.16-7.41-9.59-18-18-30.14-20.79L1100.56,139a57.84,57.84,0,0,0-18.93,3.16,46.92,46.92,0,0,0-6.53-17.09,69.33,69.33,0,0,0-20.81-20.82,43.21,43.21,0,0,0-21.58-6.88,43.9,43.9,0,0,0-9.64-1.08Z" transform="translate(-451.58 -96.27)"/></svg>