<svg id="Layer_9" data-name="Layer 9" xmlns="http://www.w3.org/2000/svg" viewBox="0 0 962.03 550.72"><path d="M1034.87,327.36c.57-.84,1.13-1.68,1.72-2.51a113.69,113.69,0,0,1,11.55-11.78,105.38,105.38,0,0,1,12.7-7.33c12.15-4.4,25-7.16,37.76-9.2-20.92,10.51-41.26,22-61.4,34C1036.47,329.47,1035.68,328.4,1034.87,327.36Zm166.1,4.43c-4.58,11.54-9.88,21.35-19.14,29.95q-1.59,1.47-3.26,2.89c10.17-2.45,20.43-4.37,30.78-5.89l.27-.5a92.75,92.75,0,0,0,2.9-10.88,102.29,102.29,0,0,0,0-14.33,96.36,96.36,0,0,0-3.27-12.18,80.57,80.57,0,0,0-4.13-7.16c-1-1.13-2.12-2.21-3.23-3.27C1203.61,317.66,1203.6,325.18,1201,331.79ZM713.69,402.12a45.21,45.21,0,0,1-7.72-.07q-5.51,3-10.92,6.16Q704.38,405.23,713.69,402.12Zm88.43-32.83a314.49,314.49,0,0,0-54.28,13.84,42,42,0,0,1-12.61,11.75c24.93-8.51,49.74-17.37,74.52-26.29C807.2,368.78,804.66,369,802.12,369.29ZM697.54,603.06a34.13,34.13,0,0,1-.47-12.45H697a45.42,45.42,0,0,1-23-6.22l-.08,0c.81,1.36,1.65,2.71,2.53,4a97.74,97.74,0,0,0,8.67,8.6,114.65,114.65,0,0,0,12.65,7.46C697.68,604,697.6,603.51,697.54,603.06ZM531.47,450.19a92.71,92.71,0,0,1,13.47-31.92c19.11-28.86,46.82-51.16,75.43-70.45a152.23,152.23,0,0,0-15.25.62,133.23,133.23,0,0,0-21.41,5.77,126.52,126.52,0,0,0-16.87,9.88,137,137,0,0,0-15.67,15.83,170.08,170.08,0,0,0-15.31,26.69,143.52,143.52,0,0,0-7,24,92.43,92.43,0,0,0-.11,11.41c.47,2.13,1,4.22,1.69,6.29C530.77,449,531.12,449.58,531.47,450.19Zm347-166.5c11.69,3.35,20.77,10.91,27.25,21,5.28,8.19,6.74,18.09,5.81,27.64q6-2,12-4.06c-4.29-7.29-8.85-14.42-13.82-21.28a151.85,151.85,0,0,0-17.91-18.48,100.22,100.22,0,0,0-10.73-6.4,83.69,83.69,0,0,0-8.2-2.27,95.27,95.27,0,0,0-10.42.15C867.82,281,873.19,282.18,878.46,283.69ZM1395.54,490a128.78,128.78,0,0,0-14-32.26c-11.18-18.45-25.57-33.13-42.06-46.31l1.78,1.37-1.8-1.38q-3.65-2.92-7.43-5.75l7.43,5.75h0a245.69,245.69,0,0,0-42.74-26.49c6-16,8.21-34.48,7-51.49-1.49-21.56-6.5-41.72-16.91-60.78-21.37-39.11-64.69-60.08-107.36-66.08-22.79-3.2-45.21-4.55-68.18-2.64a371.49,371.49,0,0,0-62.88,10.21c-25,6.5-48.52,18.9-67.3,36.68a221.35,221.35,0,0,0-15.73-18.2c-11.61-12-25.45-23.27-40.64-30.42-19.13-9-39.57-14.85-61-13.65a293.91,293.91,0,0,0-84,17.53c-29.64,11-59.06,25.78-81,49.16a144,144,0,0,0-13,16.06c-25.34-12.23-54-16.73-82-13.94-27.82,2.77-54.79,9.88-78.62,25.08-23.51,15-42.67,35-57.49,58.58-7.65,12.17-13.3,25.33-18.67,38.63-5.91,14.62-8.76,29.22-10.69,44.85-3.08,24.95,2.22,51.77,15.3,73.35,25.13,41.45,73.28,62,119.52,68.79l3.71.52c.44,13.26,2.61,26.83,7.32,39.14,7.18,18.75,16.47,35,30.53,49.56a139.61,139.61,0,0,0,38.35,28c29.79,14.61,63.78,22.16,97,18.7,10.94-1.14,22-2.55,32.7-5.36A173.4,173.4,0,0,0,808,688a179,179,0,0,0,83.58,45c38.89,8.73,77.35,7.07,116.47,1.51,30.83-4.38,61.31-12.14,89.13-26.45,19.18-9.87,34.8-24,47.48-41.27a85.79,85.79,0,0,0,7.34-12c35,10.39,73.35,10.15,109.36,1.5a211.94,211.94,0,0,0,79.76-38.17c10.71-8.28,20.55-17,28.94-27.65,6-7.66,12.27-15.42,16.86-24.07,7.35-13.85,10.54-26.44,12.18-41.87C1400.26,513.14,1398.53,500.91,1395.54,490Z" transform="translate(-437.41 -188.37)"/></svg>