<svg id="Layer_6" data-name="Layer 6" xmlns="http://www.w3.org/2000/svg" viewBox="0 0 879.81 736.37"><defs><style>.cls-1{fill:#fff;}</style></defs><path d="M760.46,862.78c-5.91,0-10.76-.17-15.25-.53-11.88-1-23.42-2.09-34-5.36-12-3.73-21.51-8.23-29.12-13.76q-1.46-1.07-3-2.13c-4.75-3.38-9.66-6.88-13.47-11.15-1.55-1.75-3-3.57-4.48-5.43l.14-.11c-12.05-15.63-23.64-32.33-36.48-52.58-8.61-13.57-16.46-25.78-25.25-37.81-7.93-9.67-16.55-19-24.88-27.95-6.66-7.18-13.54-14.6-20-22.15-25.46-29.71-40.66-55.27-49.3-82.88-5.05-16.12-7-33.74-8.18-48.84a184.64,184.64,0,0,1,1.07-37.86c1.73-13.88,4.33-32.18,9.21-50.65,3.43-12.95,7.46-25.58,11.3-37.4,17.69-54.49,38.29-100,63-139,27.54-43.57,59.86-82.35,96-115.27,14-12.74,26.09-21.68,38-28.14A131.31,131.31,0,0,1,774,127.5c1.47-.06,3-.09,4.44-.09,27.26,0,50.76,10.3,75.65,21.22l3.49,1.53c16.89,6.6,34.85,11.41,52.23,16.06,5.85,1.57,11.91,3.19,17.79,4.84q13,3.67,26.08,7.31c35.17,9.84,71.53,20,107,31.06,24.24,7.56,45.92,14.86,66.27,22.32,21.49,7.87,42.85,16.83,62.88,25.33,7.87,3.22,16,6.15,23.85,9,7.19,2.59,14.62,5.27,21.84,8.17l.84.34c11.6,4.65,23.6,9.47,34.71,15.52,9.64,5.24,19.71,12.43,30.78,22,8.7,7.49,15.55,17,22.17,26.17a162.37,162.37,0,0,1,12,19.48,279.68,279.68,0,0,1,22,55.74c8.2,29.88,12.79,64.1,14.44,107.71.53,13.9.72,28,.9,41.68.22,16.64.45,33.85,1.29,50.78.84,16.69,1.47,33,0,49.26-2.6,29-8.18,49.87-18.68,69.83-6.24,11.88-18.46,21.27-34.39,26.42a46.23,46.23,0,0,1-14.31,2.2c-9.71,0-20.09-2.77-30-8-11.68-6.18-22.54-20.31-26.42-34.37-3.81-13.85-1.86-29.37,5.49-43.69a113.05,113.05,0,0,0,3.28-12.87c.62-7.3.89-15,.82-23.68l0-2.31-.94,2.11q-1.58,3.56-3.18,7.07c-7.23,15.95-16.41,31.17-25.29,45.9-4.71,7.82-9.59,15.91-14.12,24-2.85,5.09-5.62,10.34-8.29,15.41-3,5.72-6.15,11.64-9.39,17.36a277.55,277.55,0,0,1-28.82,41.27,107.93,107.93,0,0,1-12.05,12.34c-6.55,5.66-15.29,12.87-24.81,18.47-14.89,8.75-32.2,14.92-51.45,18.34-36.43,6.48-73,9.25-113.52,11.95-17.76,1.18-35.77,2.91-53.18,4.58-16.35,1.57-33.26,3.19-49.93,4.36C831.75,862,798,862.35,765.3,862.75ZM722.74,711.83c7.48,11.61,15.22,23.61,23.34,35.09l.11.16,1.23.29c5.41.4,11.26.59,18,.59,6.2,0,12.49-.16,18.58-.32,4.21-.1,8.56-.21,12.81-.27,42.38-.54,84.33-4.25,127.16-8.32l-.07-1c-2.26.09-4.55.14-6.82.14A177.19,177.19,0,0,1,896.46,737c-23.29-2.75-46.66-7.17-69.27-11.44-17-3.21-34.54-6.53-51.94-9.12-4.6-.56-9.2-1.09-13.8-1.62-10-1.15-20.39-2.34-30.55-3.84-2.84-.41-5.76-.93-8.7-1.53l-1.16-.24ZM1086.91,454a411.19,411.19,0,0,1,24.39,56.27,123.74,123.74,0,0,1,2.8,72.52c-6.46,23.74-20.3,42.83-34.3,59.92-9.6,11.73-20.08,22.66-32.86,35.47a262,262,0,0,1-43.32,35.51,154.75,154.75,0,0,1-63.24,22.92l.11,1c11.08-.89,22.35-1.64,33.26-2.37,22.36-1.49,45.48-3,68.11-5.81,9.12-1.32,19.79-3.11,29.86-6.39,2.44-1.28,4.77-2.65,7-4.09a114,114,0,0,0,9-9.23c8.15-11.73,14.94-24.48,21.5-36.81,3.62-6.8,7.36-13.83,11.28-20.61,3.44-5.93,7-11.91,10.52-17.7,8.71-14.46,17.71-29.42,25-45a126.46,126.46,0,0,0,4.86-16c0-.75,0-1.4,0-2.06v-.12c-.66-2.61-1.44-5.24-2.39-8-5.82-11.88-12.88-22.81-19.65-32.87-8.42-12.51-16.61-24.89-24.34-36.78-8.35-12.85-17.37-26.62-26.72-40.27ZM871.47,358.83c-11.88,2.16-24.22,4.68-36.69,7.49-23.15,5.23-41.58,10.61-58,16.95a180.27,180.27,0,0,0-27.17,15.27A122.27,122.27,0,0,0,739,408.94a106.12,106.12,0,0,0-5.77,9.86,116.61,116.61,0,0,0-3.69,13.83c-1.09,14.52-.27,29.31.53,43.61l.17,3c1,17.27,2.56,35.12,4.78,53.06,2.47,17,5.45,33.72,8.85,49.55,1,4.47,2.05,9,3.11,13.34l.56,2.31.31.07c3.56.78,7.39,1.48,11.69,2.15l11.16,1.38c14.4,1.77,29.29,3.6,43.88,5.9l2.15.34L815,606.12l-.47-.32-.62-.42-1.09-.8c-5.65-4.1-11.49-8.35-16.5-13.27a119.42,119.42,0,0,1-11.85-14.41c-.67-.91-1.34-1.82-2-2.71-6.22-8.33-10.17-18.31-14-28.66-3.39-9.15-4.57-19.28-5.71-29.08-.21-1.86-.43-3.72-.66-5.55a114.77,114.77,0,0,1-1-20.37c1.25-23.91,6.83-43.75,17.06-60.66,10.46-17.27,25-31.77,45.82-45.62,15.56-10.36,32.88-18.18,47.77-24.47l4.19-1.77ZM616.05,504c-1.31,5.61-2.43,11.13-3.34,16.4a186.5,186.5,0,0,0-.25,33.13,142,142,0,0,0,5.36,20.91,158.09,158.09,0,0,0,10.06,17.24l1.34,2-.44-2.38c-1.36-7.45-2.53-14.31-3.56-21-3.68-23.82-6.35-45.5-8.18-66.26l-.28-3.11ZM927,507.55a63.36,63.36,0,0,1,29.75,7.79c11.9,6.29,21.28,18.5,26.42,34.39,2.47,7.62,2.75,17.07.78,26.61l-.35,1.74,1.21-1.3c4.65-5,8.42-9.19,11.85-13.26a106.1,106.1,0,0,0,6-9.68l0-.05v0c.18-.6.35-1.2.51-1.81l0-.06v-.06c0-.48,0-1,0-1.43v-.11a142.15,142.15,0,0,0-6.36-19.13A302.64,302.64,0,0,0,966,477.07a169.69,169.69,0,0,0-16.73-17.79c-.52-.33-1-.6-1.41-.86l-.06,0h-.06c-.51-.15-1-.29-1.54-.42h-.11l-1.89,0c-1.47,0-3,0-4.63.12a154,154,0,0,0-23.77,7.15,225.28,225.28,0,0,0-33.69,18.37c-1.6,1.44-3.07,2.86-4.44,4.29l0,0,0,.05c-.2.33-.39.66-.58,1l-.17.29,0,.06c-.22.8-.44,1.6-.64,2.41v.1a109.3,109.3,0,0,0,.25,11.93c.43,2.17.87,4.09,1.36,5.91l0,.2.85.48h.05c2.3.7,4.67,1.33,7.07,1.85,2.28.14,4.53.2,6.77.2,3,0,6-.11,9.08-.33,3.83-.75,7.33-1.56,10.75-2.51A54.92,54.92,0,0,1,927,507.55Zm245-133.64c16.5,22.64,31.68,46,46.36,68.65,4.33,6.67,8.83,13.38,13.19,19.87,3.57,5.32,7.27,10.83,10.85,16.28,4.65,7.09,9,14.55,13,22.19l1.11,2.12-.16-2.38c-.54-7.67-1.24-15.26-2.07-22.55-3.23-20.56-7.78-38.49-13.92-54.84a175.35,175.35,0,0,0-13.26-23.43c-1.55-1.68-3.13-3.25-4.74-4.73a149.3,149.3,0,0,0-19.95-10.91c-6.6-2.58-13.35-5-19.87-7.37l-6.47-2.34-2.63-1-2.46-.93ZM777.8,242.47h-1.65l-.06,0c-.63.17-1.26.34-1.89.53h-.05l0,0a113.55,113.55,0,0,0-11.39,7.11,325,325,0,0,0-27.15,25.4l-1.65,1.71,2.2-.9c10.66-4.4,20.16-7.9,29-10.68,12.8-4,26.61-7.61,43.46-11.3l1.5-.33-1.41-.62-7.4-3.26-5.83-2.57a124.67,124.67,0,0,0-15.92-5.13H777.8Z" transform="translate(-496.23 -126.91)"/><path class="cls-1" d="M778.45,127.91c27.15,0,50.61,10.28,75.45,21.17l3.53,1.55c16.9,6.6,34.88,11.42,52.26,16.07,5.85,1.57,11.9,3.19,17.78,4.85l26.1,7.31c35.16,9.83,71.52,20,107,31,24.24,7.56,45.91,14.85,66.25,22.31,21.48,7.87,42.83,16.82,62.86,25.32,7.88,3.23,16,6.16,23.87,9,7.18,2.59,14.62,5.27,21.82,8.16l.83.34c11.59,4.65,23.58,9.46,34.67,15.5,9.61,5.23,19.65,12.39,30.7,21.9,8.65,7.45,15.48,16.93,22.08,26.1a161.11,161.11,0,0,1,12,19.42,279.2,279.2,0,0,1,22,55.63c8.18,29.84,12.77,64,14.43,107.6.52,13.89.71,28,.89,41.67.22,16.64.45,33.85,1.29,50.8.84,16.67,1.47,33,0,49.19-2.59,28.91-8.16,49.74-18.62,69.64-6.19,11.77-18.3,21.06-34.1,26.18a45.9,45.9,0,0,1-14.16,2.17c-9.63,0-19.93-2.75-29.78-8-11.56-6.11-22.33-20.11-26.16-34-3.79-13.73-1.85-29.12,5.44-43.34l0-.07,0-.08a112.07,112.07,0,0,0,3.27-12.85v-.1c.62-7.26.89-15,.82-23.67l0-4.62-1.87,4.22q-1.59,3.55-3.18,7.06c-7.22,15.93-16.39,31.14-25.27,45.86-4.71,7.82-9.59,15.91-14.13,24-2.85,5.1-5.62,10.35-8.3,15.42-3,5.72-6.14,11.63-9.38,17.35A277.27,277.27,0,0,1,1170,789.23a106.85,106.85,0,0,1-12,12.28c-6.53,5.65-15.25,12.84-24.73,18.42-14.84,8.71-32.09,14.86-51.28,18.28-36.42,6.48-72.94,9.24-113.47,11.94-17.78,1.18-35.78,2.91-53.2,4.58-16.35,1.57-33.25,3.2-49.92,4.36-33.69,2.36-67.46,2.76-100.12,3.15-1.62,0-3.23,0-4.84,0-5.9,0-10.73-.17-15.21-.53-11.85-1-23.36-2.08-33.84-5.34-11.93-3.71-21.41-8.19-29-13.69l-3-2.13c-4.73-3.36-9.62-6.84-13.38-11.07-1.26-1.42-2.48-2.9-3.67-4.4l.13-.1-.82-1.06c-12-15.6-23.6-32.28-36.42-52.49-8.61-13.58-16.46-25.8-25.27-37.84l0,0v0c-7.92-9.66-16.54-19-24.88-28-6.66-7.18-13.54-14.6-20-22.15-25.41-29.65-40.59-55.16-49.21-82.69-5-16.08-6.94-33.66-8.15-48.74a183.66,183.66,0,0,1,1.07-37.76c1.72-13.86,4.32-32.14,9.2-50.59,3.42-12.93,7.45-25.55,11.28-37.36,17.68-54.46,38.26-99.9,62.93-138.92,27.52-43.53,59.81-82.28,96-115.17,14-12.71,26-21.63,37.92-28.07A130.89,130.89,0,0,1,774,128c1.46-.06,3-.09,4.42-.09h0M731.92,278.66l4.39-1.81c10.64-4.39,20.13-7.88,29-10.67,12.78-4,26.57-7.6,43.41-11.28l3-.66L808.91,253l-7.4-3.26-5.87-2.59a127.47,127.47,0,0,0-16-5.14l-.1,0h-3.5l-.12,0c-.64.17-1.27.35-1.9.54l-.1,0-.09,0a115.68,115.68,0,0,0-11.44,7.14l0,0,0,0a325.07,325.07,0,0,0-27.16,25.41l-3.29,3.43M818.84,608.2l-3.59-2.49-.47-.32-.6-.41-1.09-.8A144.22,144.22,0,0,1,796.64,591a119.63,119.63,0,0,1-11.8-14.36c-.67-.91-1.34-1.82-2-2.71-6.18-8.29-10-17.82-13.93-28.53-3.36-9.1-4.54-19.2-5.67-29-.22-1.87-.43-3.72-.66-5.55a113.86,113.86,0,0,1-1-20.29c1.24-23.82,6.8-43.59,17-60.42,10.42-17.21,24.93-31.65,45.67-45.47,15.52-10.33,32.82-18.14,47.69-24.42l8.36-3.53-8.93,1.62c-11.88,2.17-24.23,4.69-36.71,7.51-23.17,5.23-41.63,10.62-58.09,17h-.05a181.19,181.19,0,0,0-27.23,15.31l0,0,0,0a123.6,123.6,0,0,0-10.55,10.41l0,.06,0,.06a107.75,107.75,0,0,0-5.76,9.84l0,.07,0,.07a117.19,117.19,0,0,0-3.68,13.82v.12c-1.08,14.49-.26,29.3.54,43.62l.17,3c1,17.28,2.56,35.14,4.79,53.11C737,549.46,740,566.14,743.41,582c1,4.48,2.05,9,3.12,13.36l.48,2,.15.61.61.14c3.57.78,7.41,1.48,11.75,2.16l11.15,1.37c14.4,1.78,29.28,3.61,43.86,5.91l4.31.68m438.31-102.84-.34-4.76c-.53-7.68-1.23-15.28-2.07-22.61-3.23-20.57-7.79-38.53-13.94-54.91l0,0v0a176.15,176.15,0,0,0-13.29-23.46l0-.07,0-.06c-1.51-1.61-3.1-3.19-4.72-4.69l-.06-.05-.07-.05a150.6,150.6,0,0,0-20-10.9h-.06c-6.58-2.57-13.33-5-19.86-7.37l-6.46-2.33-2.59-1-.93-.35-3.13-1.18,2,2.7c16.49,22.63,31.66,46,46.34,68.63,4.34,6.68,8.85,13.4,13.21,19.89,3.57,5.32,7.26,10.82,10.83,16.27,4.64,7.07,9,14.52,13,22.15l2.22,4.22M940.53,738.1c11.07-.89,22.35-1.64,33.25-2.37,22.37-1.49,45.5-3,68.17-5.82,9.12-1.32,19.82-3.12,29.92-6.4l.08,0,.08,0c2.37-1.25,4.72-2.62,7-4.08l.07-.05.06,0a112.26,112.26,0,0,0,8.95-9.22l0,0,0,0c8.14-11.72,14.93-24.48,21.5-36.83,3.62-6.79,7.36-13.82,11.27-20.59,3.44-5.93,7-11.91,10.52-17.7,8.71-14.47,17.72-29.43,25-45l0,0v0a124.76,124.76,0,0,0,4.86-16l0-.09v-.1c0-.66,0-1.32,0-2v-.12l0-.12c-.65-2.63-1.44-5.26-2.4-8.06l0-.06,0-.06c-5.8-11.84-12.87-22.8-19.65-32.87-8.45-12.54-16.63-24.91-24.34-36.77-8.35-12.86-17.37-26.63-26.73-40.28l-1.71,1a411.49,411.49,0,0,1,24.35,56.21,123.23,123.23,0,0,1,2.8,72.22c-6.43,23.65-20.24,42.69-34.2,59.74-9.59,11.71-20.07,22.63-32.84,35.43a262,262,0,0,1-43.23,35.44,154.11,154.11,0,0,1-63,22.84l.22,2m-48-225.23c3,0,6.05-.11,9.11-.33h.12c3.8-.74,7.31-1.56,10.74-2.51a54.29,54.29,0,0,1,14.47-2,62.89,62.89,0,0,1,29.51,7.73c11.78,6.23,21.08,18.34,26.18,34.1,2.44,7.54,2.71,16.9.76,26.36l-.71,3.48,2.42-2.59c4.67-5,8.44-9.21,11.87-13.29l0,0,0,0a105.07,105.07,0,0,0,6-9.68l0-.09,0-.1c.18-.61.35-1.22.52-1.83l0-.12v-.13c0-.48,0-1,0-1.44v-.11l0-.11a142.59,142.59,0,0,0-6.39-19.23,303.43,303.43,0,0,0-30.9-54.14l0,0,0,0a170.13,170.13,0,0,0-16.77-17.82l-.07-.06-.08-.05c-.44-.27-.89-.55-1.34-.81l-.11-.06-.12,0-1.56-.41-.11,0h-.11l-1.9,0c-1.48,0-3,0-4.65.12h-.16a155.27,155.27,0,0,0-23.77,7.16h-.05a226.55,226.55,0,0,0-33.74,18.4l0,0,0,.05c-1.56,1.4-3.05,2.84-4.42,4.27l-.08.08-.06.1c-.2.33-.4.67-.59,1l-.13.23-.06.1,0,.12c-.23.81-.45,1.63-.64,2.43l0,.1v.1a110.16,110.16,0,0,0,.25,12v.12c.42,2.12.86,4.05,1.36,5.89l.1.4.36.2.54.31.09.05.1,0,.1,0c2.3.71,4.69,1.33,7.1,1.86l.08,0h.08c2.21.12,4.47.19,6.72.19M630.15,596l-.88-4.76c-1.36-7.46-2.52-14.31-3.55-21-3.68-23.81-6.35-45.47-8.18-66.23l-.55-6.23-1.42,6.09c-1.32,5.62-2.45,11.14-3.36,16.42v.08a187,187,0,0,0-.23,33.18v.09a143.7,143.7,0,0,0,5.36,20.94l0,.06,0,.06A158.62,158.62,0,0,0,627.46,592l2.69,4M765.39,748.46c6.21,0,12.51-.16,18.6-.32,4.2-.1,8.55-.21,12.8-.27,42.39-.54,84.36-4.25,127.2-8.32l-.14-2c-2.25.09-4.54.14-6.8.14a176.16,176.16,0,0,1-20.53-1.21c-23.27-2.75-46.63-7.16-69.23-11.44-17-3.21-34.55-6.53-52-9.12-4.6-.56-9.28-1.1-13.81-1.62-10-1.15-20.37-2.34-30.52-3.83-2.83-.41-5.75-.93-8.67-1.53l-2.33-.48,1.29,2,1.06,1.64c7.48,11.61,15.22,23.62,23.35,35.11l.22.31.37.09.24.06.82.18.07,0h.07c5.35.39,11.22.58,17.93.58m13.06-621.55c-1.48,0-3,0-4.46.09a131.53,131.53,0,0,0-58.36,16.31c-13.79,7.47-26.57,17.71-38.12,28.21-37,33.67-69.4,73.11-96.12,115.38-27.35,43.25-47.28,90.57-63,139.14-4,12.39-8,24.82-11.3,37.42-4.42,16.73-7.09,33.53-9.22,50.72a186.74,186.74,0,0,0-1.08,38c1.3,16.24,3.3,33.29,8.2,49,10,31.82,27.91,58,49.4,83,14.59,17,30.66,32.74,44.87,50.08,8.95,12.23,17.12,25,25.24,37.78,11.49,18.12,23.36,35.56,36.47,52.57.27.35.54.71.82,1.06-.28-.35-.55-.71-.82-1.06l-8.26-10.68c4.17,5.45,8.1,11.16,12.66,16.29s11,9.32,16.52,13.35c8.73,6.35,19,10.65,29.26,13.84,10.9,3.39,22.77,4.47,34.06,5.38,5.08.4,10.19.53,15.29.53,1.61,0,3.23,0,4.85,0,33.43-.39,66.81-.81,100.18-3.15,34.43-2.41,68.67-6.65,103.11-8.94,38-2.54,76-5.28,113.58-12,18.07-3.21,35.7-9.05,51.61-18.4,8.86-5.21,17.16-11.85,24.89-18.52a109,109,0,0,0,12.1-12.4,278.88,278.88,0,0,0,28.87-41.34c6.13-10.8,11.63-21.94,17.69-32.78,13.06-23.37,28.35-45.5,39.43-70,1.06-2.35,2.13-4.71,3.18-7.07.06,7.87-.15,15.73-.82,23.57A109.5,109.5,0,0,1,1255.9,675c-7,13.55-9.63,29.1-5.52,44.05,3.71,13.46,14.11,28,26.67,34.68,9.2,4.86,19.73,8.07,30.24,8.07a46.87,46.87,0,0,0,14.47-2.22c14-4.54,27.62-13.24,34.68-26.67,11.84-22.52,16.47-44.85,18.73-70,1.47-16.4.81-32.92,0-49.33-1.54-30.83-1-61.63-2.19-92.46-1.37-36.07-4.88-72.93-14.46-107.82a280.77,280.77,0,0,0-22-55.84,162.37,162.37,0,0,0-12-19.54c-6.69-9.27-13.53-18.76-22.25-26.26-9.51-8.2-19.8-16-30.87-22-11.4-6.21-23.59-11.06-35.61-15.89-15.1-6.06-30.62-11-45.68-17.15-20.82-8.84-41.65-17.56-62.9-25.34-21.9-8-44-15.38-66.29-22.33-44.08-13.74-88.64-25.86-133.08-38.37-23.24-6.54-47.4-12.07-70-20.88-25.68-11.23-50.68-22.79-79.34-22.79Zm-42.52,149A323,323,0,0,1,763,250.59a114.65,114.65,0,0,1,11.33-7.08c.63-.19,1.25-.36,1.88-.53h3.22a126.47,126.47,0,0,1,15.84,5.1c4.41,1.94,8.81,3.9,13.23,5.84-14.64,3.2-29.2,6.82-43.5,11.31-9.88,3.1-19.53,6.76-29.08,10.69Zm135.63,83.4c-16.45,6.94-32.95,14.59-47.85,24.51-18.43,12.27-34.42,26.69-46,45.78-11.21,18.51-16,39.49-17.14,60.89a116.79,116.79,0,0,0,1,20.47c1.43,11.43,2.33,23.77,6.39,34.74,3.69,10,7.64,20.18,14.06,28.78,4.37,5.85,8.67,12,13.91,17.18s11.63,9.73,17.65,14.11c.36.26.73.5,1.09.75-18.29-2.89-36.66-5-55-7.29-3.91-.6-7.81-1.3-11.67-2.14-1.23-5.1-2.49-10.2-3.6-15.34q-5.26-24.59-8.84-49.5-3.27-26.43-4.77-53c-.85-15.37-1.86-31.07-.71-46.5A115.64,115.64,0,0,1,733.7,419a105.65,105.65,0,0,1,5.71-9.75A119.85,119.85,0,0,1,749.87,399a181.64,181.64,0,0,1,27.07-15.23c18.8-7.24,38.32-12.49,57.95-16.92q18.25-4.11,36.67-7.49Zm384.26,141.35c-4-7.57-8.3-15-13.07-22.23-7.94-12.1-16.16-24-24-36.16-15-23.16-30.1-46.34-46.37-68.67,1.17.45,2.35.9,3.53,1.33,8.78,3.19,17.6,6.29,26.3,9.69A150.36,150.36,0,0,1,1222,395.46q2.41,2.22,4.67,4.64a174.38,174.38,0,0,1,13.2,23.33,277.08,277.08,0,0,1,13.89,54.72q1.29,11.24,2.07,22.52ZM940.45,737.1a156.12,156.12,0,0,0,63.44-23,263,263,0,0,0,43.4-35.57c11.35-11.38,22.71-23.07,32.9-35.51,15-18.31,28.07-36.87,34.4-60.11a124.85,124.85,0,0,0-2.82-72.81,412.56,412.56,0,0,0-24.41-56.34c9.1,13.28,17.94,26.75,26.71,40.25q12,18.51,24.35,36.79c7.11,10.56,14,21.32,19.58,32.75.91,2.63,1.71,5.29,2.38,8,0,.65,0,1.3,0,2a125.09,125.09,0,0,1-4.83,15.91c-10.16,21.76-23.45,41.88-35.47,62.64-11,19.06-20.15,39.24-32.73,57.35a114,114,0,0,1-8.86,9.13q-3.37,2.16-6.91,4c-9.63,3.13-19.7,4.91-29.76,6.36-33.66,4.14-67.56,5.48-101.35,8.18ZM892.54,511.87q-3.33,0-6.67-.19-3.54-.78-7-1.84l-.62-.34c-.52-1.93-1-3.87-1.34-5.82a109.32,109.32,0,0,1-.25-11.87c.2-.8.41-1.6.64-2.4.23-.4.46-.81.71-1.22,1.4-1.46,2.86-2.86,4.36-4.22a226.52,226.52,0,0,1,33.59-18.32,155,155,0,0,1,23.62-7.11c1.53-.08,3.06-.12,4.6-.12l1.87,0c.52.14,1,.27,1.54.42s.88.52,1.32.79a170.2,170.2,0,0,1,16.67,17.71,302.2,302.2,0,0,1,30.8,54,143.46,143.46,0,0,1,6.33,19.07c0,.47,0,.94,0,1.41-.16.61-.33,1.2-.51,1.8a106.38,106.38,0,0,1-5.94,9.6c-3.82,4.52-7.79,8.92-11.84,13.24,1.87-9.09,1.84-18.72-.79-26.87-4.55-14-13.25-27.58-26.67-34.67a64.17,64.17,0,0,0-30-7.85,55.07,55.07,0,0,0-14.73,2c-3.52,1-7.08,1.79-10.66,2.49q-4.51.33-9,.33ZM628.29,591.43a159.28,159.28,0,0,1-10-17.14A142.45,142.45,0,0,1,613,553.5a186.53,186.53,0,0,1,.24-33q1.42-8.24,3.34-16.37c2,22.18,4.79,44.29,8.19,66.3q1.62,10.53,3.56,21Zm137.1,156c-6,0-11.94-.15-17.86-.58l-1-.24c-8.5-12-16.43-24.37-24.39-36.72,2.86.59,5.76,1.11,8.72,1.54,14.76,2.16,29.57,3.66,44.36,5.45,40.56,6,80.42,15.75,121.22,20.56a175.91,175.91,0,0,0,20.65,1.22q3.42,0,6.84-.14c-42.38,4-84.5,7.77-127.12,8.32-10.36.14-20.88.59-31.38.59Z" transform="translate(-496.23 -126.91)"/></svg>