<svg id="Layer_2" data-name="Layer 2" xmlns="http://www.w3.org/2000/svg" viewBox="0 0 657.6 453.53"><defs><style>.cls-1{fill:#fff;}</style></defs><path d="M919.68,763.77a44.23,44.23,0,0,1-17.06-3.39A42.7,42.7,0,0,1,882,742.75l-4.34-10.29L876.13,721c2-15.48,5-33.83,11.41-52.64,2.93-8.56,6.31-17.26,10.33-26.62l1-2.22-8.5,8c-4.65,4.4-9.43,8.84-14,13.13-13.67,12.73-27.8,25.88-40.82,39.69-7.45,7.91-18,12.27-29.8,12.27a48.23,48.23,0,0,1-22.43-5.55c-16.14-8.53-25-30.35-19.79-48.65,1.87-6.54,4.09-13.33,6.58-20.17l.87-2.37L766,641.26q-10.79,11.79-21.6,23.55c-4.35,4.73-8.69,9.62-12.89,14.36-10,11.24-20.29,22.87-31.56,33.18a45.47,45.47,0,0,1-30.64,12.23,46,46,0,0,1-21.62-5.49c-18-9.5-23.56-31.68-19.77-48.68,2.67-12,9.71-24.32,15.93-35.18,1.07-1.87,2.13-3.72,3.15-5.53,1.95-3.48,4.11-7.21,6.8-11.76l.77-1.3-1.39.58a43.15,43.15,0,0,1-38.36-2.57c-11.88-6.95-23.12-22.75-21.34-37.14,2.88-23.4,7.6-42.9,14.85-61.38,13.07-33.33,30-65,44.83-91.54,8.71-15.6,16.28-28,23.81-39.17,6.17-9.12,12.93-17.89,18.78-25.39,2.53-3.25,5.35-6.33,8.07-9.3.79-.87,1.58-1.73,2.37-2.61l0,0,0-.05c.23-.41.46-.82.67-1.25,6.06-11.92,18.74-17.51,25.77-19.79a34.68,34.68,0,0,1,10.71-1.64,48.81,48.81,0,0,1,22.49,6c8.75,4.63,16.89,15.21,19.79,25.75a43,43,0,0,1-1.1,25.52l-.59,1.73,1.39-1.19c7-6,14-12,20.91-17.55,15.48-12.65,34.76-28.39,56-38.24,8.65-4,16.17-5.95,23-5.95A33.4,33.4,0,0,1,895.55,323,51.39,51.39,0,0,1,914.6,334.1c6.26,5.74,10.46,14.53,11.83,24.73a43,43,0,0,1-2.3,20.7l-.53,1.5,1.29-.93c5.22-3.72,9.59-6.81,13.76-9.72,13.17-9.18,27.14-18.61,41.54-28,3-1.94,6-4,8.89-5.91,10.27-6.91,20.9-14.05,32.35-19.3a43,43,0,0,1,21.79-5.91l11.53,1.55c11,2.5,18.69,10.74,22.31,15.43,5.78,7.48,8.8,16,9.26,26.14a32.73,32.73,0,0,1-.67,8.09l-.28,1.36,1.08-.87c5.58-4.47,11.69-9.07,18.55-12.47,7.83-3.88,15.74-5.94,22.87-5.94a33.6,33.6,0,0,1,10.34,1.57,51.51,51.51,0,0,1,19.06,11.11c13.5,12.39,16.52,35.81,6.72,52.2-4.61,7.72-10.67,14.11-17,20.51l.64.77.65-.45c4.58-3.14,9.32-6.39,13.87-9.72l.41-.32A165.26,165.26,0,0,1,1176.19,410c8.5-5.51,18.51-8.58,30.62-9.39.68,0,1.37-.07,2.06-.07,13.3,0,27.74,8.81,35.12,21.42a43.17,43.17,0,0,1,0,43.5,95.35,95.35,0,0,1-10.67,18.28l-.25.36.31.3a44,44,0,0,1,11.85,19.42c4.66,15.39,3.31,31.59,2,47.25-.11,1.36-.23,2.71-.34,4.06q-1,12-2,24-1,11.43-1.91,22.85-.6,7.5-1.16,15c-2.21,28.9-4.48,58.79-11.71,87.49-3.23,12.8-12.56,21.07-19.82,25.75-5.9,3.8-13,5.73-21.1,5.73a54.73,54.73,0,0,1-12.11-1.4c-9.61-2.19-20.19-10.33-25.74-19.8s-7.18-21.92-4.34-33.22c2.22-8.78,4.1-18.13,5.59-27.77.47-3.94.85-7.49,1.17-10.87l.18-1.88-1.09,1.54c-12.37,17.54-23,33.89-32.42,50a42.42,42.42,0,0,1-37.08,20.92,47.09,47.09,0,0,1-21.9-5.47c-8.75-4.62-16.88-15.21-19.78-25.75s-1.39-22,4.36-33.23c4.13-8.07,8.21-16.83,12.82-27.58.86-2,3.59-8.65,3.59-8.65l-1.85,2c-21.12,22.23-42.53,47.3-65.47,76.67-4.83,6.43-9.54,13.17-14.09,19.68-9.67,13.8-19.66,28.08-31.34,40.41C942.28,759.29,931.35,763.77,919.68,763.77Z" transform="translate(-592.77 -310.74)"/><path class="cls-1" d="M1043.16,311.74l11.47,1.54c10.84,2.49,18.46,10.62,22,15.25a44.07,44.07,0,0,1,9.15,25.85,32.13,32.13,0,0,1-.66,8l-.56,2.72,2.17-1.73c5.55-4.45,11.64-9,18.45-12.41,7.76-3.85,15.6-5.89,22.65-5.89a33,33,0,0,1,10.19,1.55,51,51,0,0,1,18.87,11c13.34,12.24,16.31,35.38,6.63,51.58-4.58,7.67-10.62,14-16.92,20.41l1.28,1.53.64-.44c4.59-3.15,9.33-6.4,13.93-9.76l.39-.32a165.47,165.47,0,0,1,13.59-10.2c8.42-5.46,18.35-8.51,30.37-9.31.67,0,1.35-.07,2-.07,13.13,0,27.39,8.71,34.69,21.17a42.69,42.69,0,0,1,0,43l0,.05,0,.06a94.09,94.09,0,0,1-10.59,18.13l-.5.71.63.6a43.43,43.43,0,0,1,11.71,19.2c4.63,15.31,3.28,31.45,2,47.07l-.33,4.06c-.65,8-1.35,16.22-2,24.13-.64,7.46-1.29,15.17-1.9,22.75-.41,5-.8,10.09-1.17,15-2.2,28.88-4.48,58.74-11.7,87.39-3.18,12.65-12.42,20.83-19.6,25.46-5.82,3.75-12.83,5.65-20.83,5.65a54.34,54.34,0,0,1-12-1.39c-9.49-2.16-19.94-10.2-25.41-19.56s-7.11-21.68-4.29-32.84c2.21-8.81,4.1-18.17,5.6-27.86.46-3.87.84-7.42,1.17-10.86l.36-3.75-2.17,3.07c-12.38,17.55-23,33.91-32.45,50A41.93,41.93,0,0,1,1083.35,713a46.56,46.56,0,0,1-21.66-5.41c-8.64-4.57-16.67-15-19.54-25.44s-1.37-21.76,4.32-32.87c4.14-8.09,8.22-16.86,12.84-27.62.86-2.05,1.71-4.11,2.56-6.16l2.07-5-3.72,3.9c-21.12,22.24-42.54,47.33-65.5,76.72-4.83,6.44-9.55,13.18-14.1,19.69-9.66,13.79-19.64,28.05-31.3,40.36-7.3,7.71-18.11,12.13-29.64,12.13a43.81,43.81,0,0,1-16.87-3.35,42.17,42.17,0,0,1-20.33-17.37l-1.59-3.75-2.73-6.48L876.64,721c2-15.44,4.94-33.74,11.37-52.48,2.93-8.54,6.3-17.23,10.32-26.58l1.91-4.44-3.52,3.32-3.64,3.43-3.1,2.94c-4.66,4.4-9.43,8.84-14.05,13.14-13.67,12.72-27.81,25.88-40.83,39.7-7.36,7.81-17.82,12.11-29.44,12.11a47.77,47.77,0,0,1-22.2-5.49c-15.94-8.43-24.71-30-19.54-48.08,1.87-6.52,4.08-13.3,6.57-20.13l1.73-4.74-3.4,3.72-3.08,3.36c-7.11,7.78-14.47,15.81-21.73,23.7-4.35,4.73-8.69,9.62-12.89,14.35-10,11.24-20.27,22.86-31.52,33.15a44.32,44.32,0,0,1-51.69,6.67c-17.77-9.39-23.27-31.32-19.53-48.13,2.66-11.95,9.38-23.69,15.88-35q1.62-2.81,3.15-5.54c2-3.47,4.11-7.21,6.8-11.75l1.54-2.6L653,616.76a42.63,42.63,0,0,1-37.9-2.54c-11.75-6.87-22.86-22.46-21.11-36.65,2.88-23.36,7.59-42.82,14.82-61.26,13.07-33.3,30-64.93,44.81-91.48,8.7-15.58,16.26-28,23.78-39.13,6.17-9.11,12.92-17.87,18.76-25.36,2.52-3.24,5.33-6.3,8-9.27l2.38-2.61.08-.08,0-.1c.24-.42.47-.84.69-1.27,6-11.76,18.52-17.29,25.47-19.54a34.36,34.36,0,0,1,10.56-1.62,48.25,48.25,0,0,1,22.26,5.95c8.63,4.56,16.67,15,19.53,25.43a42.4,42.4,0,0,1-1.09,25.23l-1.17,3.46,2.77-2.38c7-6,14-11.94,20.9-17.55,15.47-12.63,34.71-28.34,55.94-38.17,8.58-4,16-5.9,22.8-5.9a32.62,32.62,0,0,1,10.06,1.55,50.71,50.71,0,0,1,18.87,11c6.17,5.66,10.32,14.34,11.68,24.42a42.55,42.55,0,0,1-2.28,20.48l-1.06,3,2.58-1.84c5.22-3.73,9.59-6.82,13.76-9.72,13.16-9.18,27.13-18.6,41.53-28,3-1.95,6-4,8.88-5.91,10.26-6.9,20.87-14,32.29-19.27l0,0,0,0a42.52,42.52,0,0,1,21.44-5.82m.06-1a43.37,43.37,0,0,0-22,5.95c-14.72,6.76-27.79,16.42-41.3,25.25q-21,13.71-41.55,28-6.92,4.81-13.77,9.73a43.47,43.47,0,0,0,2.33-20.94c-1.23-9.15-5-18.6-12-25a52,52,0,0,0-19.24-11.21,33.36,33.36,0,0,0-10.37-1.6c-8,0-15.94,2.62-23.22,6-20.63,9.55-38.66,24-56.15,38.31q-10.59,8.64-20.92,17.56A43.55,43.55,0,0,0,786.15,357c-2.79-10.12-10.6-21.07-20-26.06a49.44,49.44,0,0,0-22.72-6.06,35.17,35.17,0,0,0-10.87,1.67c-10.44,3.38-20.92,9.93-26,20-.22.42-.44.83-.67,1.24-3.54,3.92-7.19,7.73-10.47,11.94-6.49,8.32-12.88,16.67-18.8,25.41C668,397.81,660.16,411,652.71,424.35c-16.6,29.71-32.42,59.87-44.87,91.6C600,536,595.59,556.11,593,577.44c-1.81,14.72,9.58,30.62,21.59,37.65a43.66,43.66,0,0,0,38.8,2.59q-3.47,5.85-6.81,11.77c-7.08,12.62-16,26.73-19.13,40.85-4.07,18.27,2.51,40,20,49.23a46.71,46.71,0,0,0,21.85,5.55,45.68,45.68,0,0,0,31-12.37c16-14.66,29.79-31.59,44.48-47.56q12.43-13.5,24.8-27-3.64,10-6.59,20.2c-5.1,17.85,3.21,40.34,20,49.23a48.81,48.81,0,0,0,22.66,5.61c11.14,0,22.16-3.93,30.17-12.43,17.4-18.46,36.4-35.38,54.83-52.79l6.75-6.38c-3.76,8.77-7.26,17.66-10.35,26.65C881.13,685.5,878,702.88,875.63,721q.78,5.79,1.55,11.59l4.4,10.41a43.23,43.23,0,0,0,20.85,17.84,44.55,44.55,0,0,0,17.25,3.43c11.22,0,22.48-4.12,30.37-12.44,17.23-18.19,30.43-40.09,45.47-60.14,20.68-26.48,42.28-52.26,65.43-76.63-.85,2.06-1.71,4.11-2.56,6.17-4,9.31-8.19,18.53-12.81,27.54-5.34,10.42-7.57,22.07-4.4,33.6,2.79,10.11,10.61,21.07,20,26a47.46,47.46,0,0,0,22.13,5.53c14.9,0,29.32-7.2,37.51-21.17,10.06-17.13,21-33.72,32.4-49.94-.34,3.62-.74,7.24-1.16,10.85-1.45,9.32-3.28,18.56-5.58,27.72-2.8,11.12-1.44,23.62,4.39,33.59,5.29,9,15.66,17.67,26.06,20a55.38,55.38,0,0,0,12.22,1.41,39.11,39.11,0,0,0,21.37-5.81c9.43-6.08,17.22-14.9,20-26,8.47-33.63,10.1-68.17,12.89-102.58,1.27-15.63,2.65-31.25,3.91-46.88,1.39-17.14,3.41-34.69-1.69-51.5a44.8,44.8,0,0,0-12-19.64,96.52,96.52,0,0,0,10.69-18.32,43.67,43.67,0,0,0,0-44c-7-12-21.21-21.66-35.55-21.66-.7,0-1.39,0-2.09.07-11.06.74-21.44,3.36-30.86,9.47a168.62,168.62,0,0,0-14.05,10.58c-4.77,3.47-9.65,6.81-14.52,10.15,6.29-6.36,12.44-12.85,17.07-20.6,9.55-16,7.24-39.93-6.82-52.83a51.85,51.85,0,0,0-19.23-11.21,34,34,0,0,0-10.5-1.6c-8,0-16.08,2.51-23.1,6-6.71,3.34-12.75,7.83-18.63,12.53a33.18,33.18,0,0,0,.68-8.22,45,45,0,0,0-9.36-26.41c-5.57-7.2-13.52-13.54-22.65-15.62l-11.59-1.56Z" transform="translate(-592.77 -310.74)"/></svg>