<svg id="Layer_1" data-name="Layer 1" xmlns="http://www.w3.org/2000/svg" viewBox="0 0 98 74.73"><path d="M877.33,351.17l-6.22-29,16,6.25,24,6.25,10-26,17,6.25-9,24s16,4.17,21,5.21,19,4.17,19,4.17l-10,17.71Zm6.78-18.59a3.13,3.13,0,0,0,0,6.25c1.66,0,4,0,4-3.12C888.11,333.62,885.77,332.58,884.11,332.58Z" transform="translate(-871.11 -291.19)"/><path d="M960.11,299.72c0,1.56-2.09,2.84-4.67,2.84a7.2,7.2,0,0,1-1.05-.08,8.67,8.67,0,0,1-4.78,1.21c-3.22,0-5.83-1.27-5.83-2.84a1.65,1.65,0,0,1,.11-.57h-.11c-2.58,0-4.67-1.27-4.67-2.84,0-1.33,1.49-2.44,3.51-2.75a.25.25,0,0,1,0-.09c0-1.25,1.56-2.27,3.5-2.27a4.85,4.85,0,0,1,1.88.35,4.33,4.33,0,0,1,3.37-1.49,4.06,4.06,0,0,1,3.9,2.4c2.13.36,3.68,1.44,3.68,2.72a1.82,1.82,0,0,1-.51,1.22A2.64,2.64,0,0,1,960.11,299.72Z" transform="translate(-871.11 -291.19)"/><path d="M939.11,308.1c0,.7-.88,1.29-2.1,1.48a2.63,2.63,0,0,1-2.4,1.12,2.68,2.68,0,0,1-2.36-1.05c-1.76-.1-3.14-1-3.14-2.07s1.48-2,3.33-2.09a2.66,2.66,0,0,1,2.17-1,2.33,2.33,0,0,1,2.5,2.09v.09C938.28,306.84,939.11,307.42,939.11,308.1Z" transform="translate(-871.11 -291.19)"/></svg>