<svg id="Layer_1" data-name="Layer 1" xmlns="http://www.w3.org/2000/svg" viewBox="0 0 53.44 53"><defs><style>.cls-1{fill:none;stroke:#fff;stroke-miterlimit:10;stroke-width:2px;}</style></defs><path d="M982.28,464.17s1.76-30,1.76-32v-3s7.46-4,8.68-5,10-7,10-7l13,13v34Z" transform="translate(-982.28 -417.17)"/><path class="cls-1" d="M1002.63,464.17c.51-8.87,1.41-24.58,1.41-26v-3s7.46-4,8.68-5c.27-.22.91-.69,1.73-1.27" transform="translate(-982.28 -417.17)"/><path d="M1002.28,470.17s1.76-30,1.76-32v-3s7.46-4,8.68-5,10-7,10-7l13,13v34Z" transform="translate(-982.28 -417.17)"/></svg>