<svg id="Layer_8" data-name="Layer 8" xmlns="http://www.w3.org/2000/svg" viewBox="0 0 633.65 690.3"><defs><style>.cls-1{fill:#fff;}</style></defs><path d="M1014.75,861.18c-13.12,0-26.51-2.19-39.47-4.31-3.07-.5-6.13-1-9.16-1.47-15.24-1.74-30.88-2.41-46-3.06l-6.17-.26c-20.34-.9-41.06-1.35-59.35-1.75-5.07-.11-10.24-.29-15.23-.46-8.29-.28-16.86-.57-25.28-.57-3.44,0-6.61,0-9.7.14-5.52.18-11.13.47-16.55.75-8.59.45-17.47.91-26.21.91h-1.57a211.94,211.94,0,0,1-30.93-2.75c-7.79-1.18-14.53-3.56-22.25-6.78l-.09.22c-13.84-5.51-27.18-13-35.69-27.06-6.8-11.22-8.26-23.13-9.81-35.73-4.78-34-6.57-70.75-5.45-112.54.36-13.57.92-27.37,1.46-40.71.7-17.27,1.43-35.13,1.73-52.7v-.49l-.49,0c-20.28-.72-36.7-2.5-51.68-5.6a198,198,0,0,1-19.24-5.39l-2.42-.77c-13-4.11-29.79-13.28-35.71-33.62-4.11-14.08-2.53-29.23,4.55-43.8,3.92-8.06,10-15.13,15.81-22l.68-.79a867.73,867.73,0,0,1,72.24-75l.2-.18,0-.27a31.2,31.2,0,0,1-.38-6.78c.33-5.3.15-10.72,0-16-.06-1.93-.12-3.87-.16-5.79-.22-11-.42-24.06-.23-37.46.39-27,1.71-55.78,8.68-83.14,4.34-17.06,11.49-31.25,21.84-43.39C683.41,180,701,171.88,717.35,171.88c1.14,0,2.28,0,3.39.12,25.37,1.76,46.59,14.45,56.77,33.95,9.79,18.74,12.11,39.43,13.52,57.34q.22,2.9.4,5.77l.05.9.73-.52c12.83-9.06,28-19.9,43.18-31.5,13.33-10.5,25.12-20.47,36-30.48A43.87,43.87,0,0,1,901,195.58a40.47,40.47,0,0,1,5.61.38l.16,0,.15-.08a41.2,41.2,0,0,1,19.55-4.61,41.93,41.93,0,0,1,11,1.4c10.15,2.8,20.19,10.52,25,19.2,27.77,50.44,62.77,97.91,96.47,141.7,6.24,8.06,12,15.39,17.56,22.42l7.45,9.42c21.42,27.12,43.57,55.16,68.28,80,23.32,23.41,31.79,45.25,25.9,66.79-8.69,31.83-42.85,43.61-71.92,44h-1.72c-5.62,0-11.32-.38-16.83-.75q-3.57-.24-7.13-.44c-4.17-.23-8.61-.33-14.41-.33h-1.16l0,.53c1,13.33,2.22,27.5,3.89,43.33,1.75,16.59,3.76,33.42,5.71,49.7,1.43,12,2.91,24.45,4.28,36.69,2.82,25.21,4.64,50.88,6.4,75.7l.63,8.89c1,13.54.83,27.76-6.61,40-8.11,13.34-21.34,22.84-39.33,28.25A86.76,86.76,0,0,1,1014.75,861.18ZM916.91,697c1.68,7,3.84,14.46,6.61,22.92,5,15.35,6.8,30.21,5.25,44.17a46,46,0,0,1-.26,4.63l0,.52.52,0c8.94.5,17.12,1.06,25,1.71,14.54,1.2,29.2,3.24,43.37,5.22l.22,0c1.1.14,2.2.26,3.29.38l.59.06,0-.58c-.42-7.48-.89-15.42-1.51-23.22-1.08-13.58-2.47-28-4.38-45.36l0-.36-.35-.08c-12.4-2.82-25.36-5.23-38.53-7.17-12.58-1.54-25.77-2.72-39.19-3.51l-.68,0Zm-92.09-.6c-25.32,1.28-52.44,3.48-85.34,7l-.46,0v.46a529.41,529.41,0,0,0,3.75,59.46l.4,2.87.33.08c1,.24,2,.47,3.26.72,4.74.4,9.7.59,15.2.59,8.38,0,16.89-.45,25.12-.89l3.46-.18c9.37-.49,19.23-.73,30.13-.73,5.44,0,11.1.06,17.29.18h.49l0-.77c0-.33,0-.67.07-1a88.82,88.82,0,0,0,.62-11.51v-.11c-1.26-5.34-3-10.66-4.72-15.81s-3.55-10.72-4.8-16.17c-1.76-7.69-3.21-15.69-4.31-23.77l-.06-.45Zm104-121c.76,5.61.53,11.61-.74,19.45-.57,3.5-1.34,7.19-2.35,11.3l-.15.58.6,0c20,1.36,39.49,3.57,58,6.55l.65.11-.07-.65c-1.42-13.84-2.5-26.11-3.33-37.49l0-.46H928.71Zm-186.17-.89c-.26,13.31-.75,26.61-1.2,37.86l0,.58.58-.06c20.91-2.18,39.23-3.83,56-5,11.35-.82,22.61-1.47,33.46-1.94h.36l.1-.34c.54-1.81,1.09-3.6,1.64-5.4,2.45-8,5-16.35,6.69-24.74l.12-.6h-.61c-32.5,0-64.34-.08-96.61-.81l-.5,0Zm-44.44-84.92c8.15,0,16.88,0,25.48.31,41.09,1.3,81.41,1.47,115.43,1.47q21.34,0,42.68-.07t42.64-.07h21.5l0-1c-14-.68-29-1.35-44-1.57-9.49-.14-19.64-.21-31-.21-12.75,0-25.18.09-38.95.18h-1.54c-13.89.1-28.25.21-42.37.21-26.82,0-62.17-.33-97.67-2.86-9-.64-16.49-3-23-7.33l-.34-.23-.29.3c-3.54,3.67-6.43,6.72-9.07,9.6l-.74.79,1.09.05c9.1.35,18.12.42,28.86.42ZM870.76,406.5c14.9,0,28,.12,40,.37,20.61.42,41.54,1.47,61.78,2.49q12.26.61,24.51,1.19l1.08.05-.66-.85q-1.94-2.5-3.86-5l-2.7-3.52-.33.11a39.88,39.88,0,0,1-12.16,2c-24.85,0-50-1.74-74.36-3.37-24.66-1.67-50.16-3.38-75.28-3.38-7.94,0-15.35.16-22.64.5l-.41,0-.06.41a50.26,50.26,0,0,1-2.14,8.73l-.23.67h.7q12.45,0,24.89-.15C842.6,406.61,856.8,406.5,870.76,406.5ZM908.28,286C897.18,295.19,885,304.7,871.13,315l-1.11.82,1.38.08c10.87.59,21.92,1.34,32.61,2.06,8.52.57,17.34,1.16,26,1.68l1,.06-.57-.84c-7.87-11.52-14.88-22.26-21.45-32.81l-.3-.49Z" transform="translate(-546.74 -171.38)"/><path class="cls-1" d="M717.35,172.38c1.13,0,2.25,0,3.35.12a77.1,77.1,0,0,1,32.67,9.62,59.71,59.71,0,0,1,23.7,24.06c9.74,18.66,12.06,39.29,13.46,57.15.14,1.84.27,3.72.4,5.76l.1,1.8,1.47-1c12.83-9.07,28-19.9,43.2-31.52,13.34-10.51,25.14-20.49,36.07-30.5A43.36,43.36,0,0,1,901,196.08a41,41,0,0,1,5.54.37l.33.05.29-.16a40.59,40.59,0,0,1,19.31-4.55,41.23,41.23,0,0,1,10.83,1.39c10,2.76,20,10.38,24.67,18.95,27.78,50.47,62.8,98,96.51,141.77,6.24,8.05,12,15.38,17.56,22.42l7.46,9.42c21.42,27.13,43.58,55.19,68.32,80,23.17,23.26,31.6,45,25.77,66.3-8.62,31.56-42.56,43.25-71.45,43.66h-1.72c-5.59,0-11.28-.38-16.78-.74-2.34-.16-4.76-.32-7.15-.45-4.18-.23-8.62-.33-14.4-.33h-1.72l.07,1.07c1,13.34,2.23,27.52,3.9,43.35,1.75,16.59,3.76,33.44,5.7,49.73,1.44,12,2.92,24.43,4.28,36.65,2.82,25.21,4.64,50.87,6.4,75.69l.63,8.89c1,13.45.83,27.58-6.54,39.69-8,13.23-21.18,22.66-39,28a86.19,86.19,0,0,1-25,3.36c-13.08,0-26.46-2.19-39.39-4.3-3-.49-6.13-1-9.2-1.48-15.24-1.74-30.88-2.41-46-3.06l-6.18-.26c-20.34-.9-41.07-1.35-59.36-1.75-5.07-.11-10.23-.28-15.23-.46-8.29-.28-16.86-.57-25.29-.57-3.44,0-6.62,0-9.71.14-5.53.18-11.14.47-16.56.75-8.59.45-17.46.91-26.19.91h-1.56a211.19,211.19,0,0,1-30.87-2.75c-7.74-1.17-14.44-3.54-22.13-6.74l-.09.22c-13.75-5.48-27-12.93-35.45-26.86-6.74-11.13-8.2-23-9.74-35.55-4.78-33.91-6.57-70.69-5.45-112.45.36-13.57.92-27.36,1.46-40.7.7-17.27,1.43-35.13,1.73-52.71l0-1-1,0c-20.25-.72-36.65-2.49-51.6-5.59a194.2,194.2,0,0,1-19.19-5.38l-2.42-.77C572.45,556.23,555.84,547.15,550,527c-4.07-14-2.51-29,4.52-43.44,3.89-8,9.92-15.05,15.75-21.86l.67-.79a866.6,866.6,0,0,1,72.2-75l.39-.37-.08-.53a30.72,30.72,0,0,1-.37-6.66c.33-5.33.15-10.77,0-16-.06-1.9-.12-3.86-.16-5.78-.22-11-.42-24-.23-37.45.39-27,1.7-55.71,8.66-83,4.32-17,11.44-31.11,21.74-43.19,10.65-12.48,28-20.55,44.3-20.55M932,320.3l-1.15-1.69c-7.86-11.5-14.87-22.23-21.43-32.79l-.61-1-.88.73c-11.09,9.22-23.24,18.73-37.13,29.06l-2.21,1.65,2.76.15c10.86.59,21.91,1.33,32.6,2.05,8.52.58,17.34,1.17,26,1.69l2,.12M802.58,407.37H804q12.45,0,24.9-.15c13.72-.1,27.91-.21,41.87-.21,14.9,0,28,.12,40,.37,20.61.42,41.53,1.47,61.77,2.49,8,.4,16.34.82,24.51,1.19l2.16.1-1.33-1.71c-1.3-1.68-2.6-3.38-3.9-5.07l-2.44-3.18-.43-.56-.67.22a39.39,39.39,0,0,1-12,1.94v1l-.06-1c-24.77,0-49.93-1.74-74.27-3.37-24.67-1.66-50.18-3.38-75.3-3.38-8,0-15.37.16-22.67.5l-.82,0-.12.81A49.17,49.17,0,0,1,803,406l-.45,1.33m-115.71,82.7h11.29c8.15,0,16.88,0,25.48.31,41.09,1.3,81.41,1.47,115.43,1.47,14.23,0,28.69,0,42.68-.07s28.44-.07,42.65-.07h21.5l.05-2c-14-.68-29-1.35-44-1.57-9.49-.14-19.64-.21-31-.21-12.75,0-25.18.09-38.95.18h-1.54c-13.88.1-28.24.21-42.36.21-26.82,0-62.16-.33-97.65-2.86-9-.64-16.23-2.94-22.77-7.25l-.7-.45-.57.6c-3.53,3.66-6.42,6.71-9.08,9.6l-1.47,1.59,2.17.09c9.1.35,18.13.43,28.89.43m54,123.41,1.15-.12c20.89-2.18,39.21-3.83,56-5,11.36-.81,22.61-1.46,33.45-1.93l.71,0,.21-.68c.54-1.8,1.09-3.59,1.64-5.39,2.46-8,5-16.37,6.7-24.79l.24-1.2h-1.22c-32.49,0-64.33-.08-96.6-.81l-1,0,0,1c-.26,13.29-.75,26.6-1.2,37.85l0,1.16m244.51.51-.13-1.29c-1.42-13.85-2.51-26.11-3.33-37.47l-.07-.93H928.13l.16,1.13c.74,5.56.51,11.52-.75,19.31-.56,3.48-1.33,7.16-2.34,11.26l-.28,1.15,1.18.09c20,1.36,39.46,3.57,58,6.55l1.29.2M1002,777.2l-.07-1.17c-.42-7.47-.89-15.4-1.51-23.23-1.08-13.59-2.48-28-4.38-45.38l-.08-.7-.7-.16c-12.4-2.82-25.38-5.24-38.59-7.19-12.59-1.54-25.79-2.72-39.21-3.51l-1.35-.08.32,1.31c1.68,7,3.84,14.49,6.62,23,5,15.28,6.76,30.06,5.23,44v.11a44.9,44.9,0,0,1-.26,4.53l-.1,1,1,.06c8.95.5,17.13,1.06,25,1.71,14.52,1.19,29.16,3.24,43.32,5.21l.26,0,3.29.38,1.17.12M762,768c8.4,0,16.92-.45,25.16-.89l3.45-.18c9.36-.49,19.2-.73,30.09-.73,5.44,0,11.1.06,17.29.18l1,0,.05-1v-.28c0-.34,0-.66.07-1a89.61,89.61,0,0,0,.62-11.57v-.11l0-.1c-1.26-5.36-3-10.7-4.73-15.85s-3.54-10.7-4.78-16.13c-1.76-7.68-3.21-15.66-4.31-23.73l-.12-.91-.92,0c-25.33,1.28-52.46,3.48-85.37,7l-.9.09v.91a528.07,528.07,0,0,0,3.76,59.53l.18,1.3.17,1.23.09.68.66.16c1,.24,2.06.47,3.28.72h.11c4.71.4,9.67.59,15.19.59M717.35,171.38c-16.74,0-34.31,8.3-45.06,20.9s-17.82,27.39-21.95,43.59c-6.85,26.9-8.29,55.59-8.69,83.26-.18,12.49,0,25,.23,37.48.14,7.21.63,14.52.18,21.72a31.6,31.6,0,0,0,.38,6.89,865.31,865.31,0,0,0-72.28,75.06c-6,7.08-12.46,14.43-16.56,22.86-6.76,13.91-9,29.07-4.58,44.16,5.13,17.63,19.12,28.62,36,34a223.68,223.68,0,0,0,21.71,6.17c17.17,3.56,34.44,5,51.76,5.61-.54,31.15-2.36,62.26-3.19,93.4-1,37.81.18,75.18,5.46,112.62,1.54,12.56,3.06,24.67,9.87,35.93,9.6,15.84,25,23.39,41.75,29.47L706.69,842c7.34,3.06,14.29,5.59,22.36,6.81a215.12,215.12,0,0,0,31,2.76h1.57c14.27,0,28.51-1.21,42.78-1.66,3.22-.1,6.45-.14,9.68-.14,13.5,0,27,.74,40.5,1,19.78.43,39.57.87,59.33,1.75,17.31.76,34.88,1.34,52.13,3.32,15.85,2.44,32.44,5.78,48.7,5.78a87.77,87.77,0,0,0,25.32-3.4c16.16-4.86,30.69-13.8,39.61-28.47,7.43-12.21,7.66-26.54,6.68-40.29-2-28.26-3.88-56.43-7-84.61-3.22-28.81-6.95-57.55-10-86.38-1.52-14.42-2.86-28.86-3.89-43.31h.65c4.79,0,9.58.06,14.35.33,8,.43,16,1.19,24,1.19h1.74c29.74-.43,63.7-12.58,72.39-44.4,7.26-26.56-8.23-49.41-26-67.27-27.53-27.64-51.49-58.81-75.7-89.36q-8.83-11.16-17.56-22.41c-34.81-45.25-68.86-91.57-96.42-141.64-5.05-9.16-15.29-16.69-25.28-19.44a42.3,42.3,0,0,0-11.1-1.42,41.86,41.86,0,0,0-19.79,4.67,41.58,41.58,0,0,0-5.68-.38,44.16,44.16,0,0,0-29.92,12c-11.6,10.63-23.65,20.72-36,30.45-14.15,10.82-28.61,21.21-43.16,31.49-.11-1.92-.24-3.85-.39-5.77-1.58-20-4.17-39.53-13.57-57.54-11.09-21.23-34.1-32.62-57.19-34.22q-1.69-.12-3.42-.12Zm212.7,147.8c-19.54-1.16-39.08-2.67-58.62-3.74,12.63-9.39,25.06-19,37.17-29.09Q919,303,930.05,319.18ZM804,406.36a50.72,50.72,0,0,0,2.17-8.82c7.54-.35,15.08-.5,22.62-.5,49.87,0,99.65,6.66,149.56,6.75h.07a40.59,40.59,0,0,0,12.31-2c2.12,2.75,4.22,5.51,6.34,8.25-28.76-1.31-57.5-3.1-86.3-3.68-13.33-.27-26.66-.37-40-.37-22.26,0-44.52.26-66.78.36ZM686.87,489.07c-9.63,0-19.25-.06-28.86-.43q4.47-4.86,9.07-9.59c6.87,4.51,14.46,6.78,23.25,7.41,32.53,2.32,65.12,2.86,97.72,2.86,14.63,0,29.27-.11,43.91-.22,13-.09,26-.18,38.94-.18q15.5,0,31,.21c14.7.22,29.35.85,44,1.57H924.4c-28.43,0-56.88.14-85.33.14-38.47,0-77-.26-115.4-1.47-8.5-.27-17-.31-25.51-.31Zm55,123.29c.5-12.63,1-25.26,1.2-37.88,32.2.74,64.41.81,96.62.82-2.06,10.22-5.32,20.11-8.32,30.09q-16.77.72-33.48,1.94c-18.7,1.34-37.37,3.09-56,5Zm242.33.44c-19.25-3.1-38.62-5.23-58.07-6.56.93-3.75,1.74-7.52,2.36-11.34a66.79,66.79,0,0,0,.75-19.6h51.63c.91,12.52,2.06,25,3.33,37.5Zm16.69,163.28c-1.09-.11-2.18-.24-3.27-.37-14.52-2-29-4.05-43.62-5.26q-12.49-1-25-1.71c.15-1.53.26-3.06.26-4.63,1.66-15-.59-30.08-5.27-44.38-2.5-7.61-4.75-15.19-6.6-22.87,13.07.77,26.12,1.91,39.15,3.5,12.92,1.91,25.75,4.27,38.49,7.17,1.66,15.1,3.18,30.21,4.38,45.35.61,7.73,1.07,15.47,1.51,23.2Zm-239-9c-5,0-10.08-.16-15.1-.58-1.09-.22-2.17-.45-3.24-.71-.12-.85-.23-1.69-.35-2.53a532.34,532.34,0,0,1-3.75-59.41c28.32-3,56.8-5.5,85.31-6.94,1.09,8,2.53,16,4.32,23.81,2.48,10.8,7,21.2,9.52,32a87.92,87.92,0,0,1-.62,11.44c0,.43-.06.87-.08,1.31-5.77-.11-11.54-.18-17.31-.18-10.07,0-20.12.21-30.14.73-9.49.49-19,1.07-28.56,1.07Z" transform="translate(-546.74 -171.38)"/></svg>