<svg id="Layer_4" data-name="Layer 4" xmlns="http://www.w3.org/2000/svg" viewBox="0 0 948.05 706.36"><defs><style>.cls-1{fill:#fff;}</style></defs><path d="M1229.29,925.68a44.57,44.57,0,0,1-13.34-2.1l-13.77-5.81c-51.5-35.55-111.17-67.37-187.77-100.12l-6.9-2.83c-12.34-5.05-25.11-10.27-37.17-16.44l-4.23-2.17c-7.4-3.79-15.06-7.72-22.75-11.27-2.83-1.06-5.64-2-8.38-2.82l-.23-.07-.19.13c-1.12.74-2.25,1.52-3.36,2.32-3.15,2.54-6.26,5.09-9.36,7.64-7.24,6-14.72,12.1-22.41,17.79-9.11,6.74-19.51,12.19-29.56,17.46-2.53,1.32-5,2.64-7.54,4-6.27,3.36-12.74,6.71-19,10-20.16,10.43-41,21.22-59.55,34.67-2.79,2.24-5.55,4.5-8.31,6.75-12,9.8-24.4,19.94-37.88,27.93a55,55,0,0,1-28,7.69,59.36,59.36,0,0,1-23.17-4.79c-16.16-6.82-26.74-18.68-33.31-37.31-13.76-39-17.57-82.43-20.07-120.08-.62-9.42-1.14-19-1.64-28.28-.45-8.27-.91-16.82-1.45-25.22-.42-6.67-.49-13.49-.55-20.08-.07-6.76-.14-13.74-.59-20.58-.22-1-.44-1.84-.68-2.71l0-.06,0,0c-.95-1.68-2-3.35-3.14-5.11-12.59-14.36-27.9-26.29-42.7-37.84l-.08-.06c-8.67-6.76-17.34-13.83-25.72-20.66-7.75-6.31-15.76-12.83-23.76-19.11-7.66-5.85-15.49-11.75-23.07-17.45-31.88-24-64.85-48.84-94.15-76.86-10.79-10.31-14.55-23.65-15.81-33a28.83,28.83,0,0,1,0-15.23v-.13a28.54,28.54,0,0,1,3.9-14.39c5.06-12,13.2-21.5,23.56-27.57L440.82,386l15.36-2.06c40,2.12,76.85,4.42,112.43,7,73.11,5.39,139.43,12,202.74,20.18q10.33,1.33,20.66,2.74l.24,0,.18-.18a394.62,394.62,0,0,0,29.44-33.24c15.34-20.34,29.82-41.75,43.82-62.46,18.3-27,37.22-55,58.22-80.86a57.76,57.76,0,0,1,25.36-14.75,44.7,44.7,0,0,1,13.36-2.1,43.58,43.58,0,0,1,9.53,1.07,43,43,0,0,1,21.41,6.82,58.07,58.07,0,0,1,20.66,20.65c4.56,9.88,8.87,19.68,11.13,30.36a276.42,276.42,0,0,1,4.76,34.83c1.75,21.25.81,42.95-.1,63.93-.26,6-.53,12.23-.73,18.34-.11,3.28-.17,6.64-.18,10.29v.83l.74-.39c36.19-19.15,74.41-33.59,110.46-46.74,5.4-2,10.79-3.91,16.19-5.86,15.06-5.41,30.62-11,45.75-17.05,22.4-8.93,46.29-18.16,70.56-24.31a57.82,57.82,0,0,1,37.46,2.9,55,55,0,0,1,23,17.71c8.08,10.46,12.36,22.52,12.36,34.86l-2.06,15.29-5.81,13.75c-17.73,25.2-37,49.93-55.65,73.84q-6.69,8.58-13.36,17.18c-34.49,44.83-70.18,93.09-94.26,146.91-2.75,7-5.09,13.43-7.15,19.84-.59,1.84-1.2,3.69-1.81,5.55-1,3.14-2.12,6.38-3.09,9.61l-.06.19.09.19c6.42,12.23,14.45,23.37,20.73,31.71,4.91,6.25,9.94,12.56,14.81,18.67,11.36,14.24,23.11,29,34,44,15.58,21.35,33.56,46.82,48.82,73.82,7.66,13.56,10,31.37,5.81,44.31a68.49,68.49,0,0,1-14.82,25.42c-7.67,8.36-19.4,14-33,15.8A43.7,43.7,0,0,1,1229.29,925.68Z" transform="translate(-398.09 -219.82)"/><path class="cls-1" d="M962.63,220.82a43.26,43.26,0,0,1,9.42,1.06l.09,0h.08a42.36,42.36,0,0,1,21.11,6.75,57.54,57.54,0,0,1,20.44,20.42c4.57,9.89,8.85,19.64,11.1,30.25a273.93,273.93,0,0,1,4.75,34.77c1.75,21.22.81,42.89-.1,63.85-.26,6-.53,12.25-.73,18.37-.11,3.29-.17,6.65-.18,10.3v1.66l1.47-.78c36.16-19.13,74.37-33.57,110.41-46.71,5.38-2,10.86-3.94,16.16-5.85,15.07-5.42,30.64-11,45.79-17.07,22.38-8.92,46.25-18.15,70.49-24.29a59.24,59.24,0,0,1,14.44-1.83,58.13,58.13,0,0,1,22.71,4.71A54.62,54.62,0,0,1,1332.89,334c8,10.35,12.23,22.27,12.25,34.48l-2.05,15.23-4.85,11.49-.91,2.14c-17.72,25.19-37,49.91-55.63,73.82q-6.67,8.56-13.34,17.15c-34.51,44.85-70.22,93.14-94.33,147.05-2.75,6.94-5.09,13.43-7.15,19.85q-.89,2.74-1.82,5.53c-1,3.15-2.11,6.4-3.09,9.63l-.12.39.19.37c6.43,12.27,14.48,23.43,20.78,31.79,4.9,6.25,9.94,12.56,14.81,18.66,11.36,14.24,23.1,29,34,43.95,15.58,21.34,33.55,46.8,48.79,73.78,7.6,13.44,9.92,31.09,5.77,43.91a68,68,0,0,1-14.7,25.23c-7.6,8.28-19.22,13.83-32.72,15.65h-.08a43.28,43.28,0,0,1-9.43,1.06,43.93,43.93,0,0,1-13.15-2.06l-6.88-2.9-6.84-2.89c-51.51-35.56-111.2-67.38-187.83-100.15l-6.88-2.82c-12.34-5.05-25.09-10.27-37.14-16.43l-4.22-2.15c-7.41-3.81-15.07-7.74-22.78-11.29l0,0h0c-2.81-1.05-5.63-2-8.39-2.82l-.45-.14-.39.26c-1.14.76-2.27,1.54-3.37,2.33l0,0h0c-3.13,2.53-6.28,5.12-9.32,7.62-7.24,6-14.73,12.1-22.4,17.78-9.09,6.72-19.47,12.16-29.5,17.42-2.49,1.3-5,2.65-7.54,4-6.27,3.37-12.74,6.72-19,10-20.18,10.44-41,21.23-59.65,34.73-2.77,2.24-5.58,4.53-8.29,6.74-12,9.79-24.37,19.91-37.83,27.89a54.48,54.48,0,0,1-27.77,7.62,58.89,58.89,0,0,1-23-4.75c-16-6.77-26.52-18.53-33-37-13.73-38.94-17.54-82.33-20-119.94-.62-9.43-1.14-19-1.64-28.29-.45-8.26-.91-16.81-1.45-25.22-.42-6.65-.49-13.46-.55-20-.07-6.76-.14-13.75-.59-20.6v-.08l0-.08c-.21-.91-.44-1.81-.67-2.65l0-.12-.06-.11c-1-1.68-2-3.37-3.17-5.14l0,0,0-.06c-12.58-14.34-27.91-26.29-42.73-37.85l-.07-.05c-8.67-6.76-17.33-13.82-25.71-20.64C549,588.84,541,582.31,533,576c-7.65-5.85-15.48-11.74-23.06-17.44-31.87-24-64.84-48.83-94.12-76.83-10.68-10.21-14.41-23.43-15.66-32.73V449l0-.06a28.36,28.36,0,0,1,0-14.91l0-.12v-.14A28.1,28.1,0,0,1,404,419.59l0,0,0-.06c5-11.82,13-21.23,23.26-27.24L441,386.47l15.2-2.05c40.11,2.12,76.89,4.42,112.43,7,73.1,5.39,139.4,12,202.71,20.18,6.3.81,13.05,1.71,20.65,2.73l.49.07.35-.35a398.26,398.26,0,0,0,29.5-33.31c15.33-20.33,29.82-41.75,43.83-62.47,18.28-27,37.18-55,58.16-80.78a57.29,57.29,0,0,1,25.16-14.64,44.22,44.22,0,0,1,13.2-2.07m0-1a44.94,44.94,0,0,0-13.5,2.12,57.9,57.9,0,0,0-25.6,14.92c-37.1,45.63-66.71,96.46-102,143.31a398.13,398.13,0,0,1-29.4,33.21q-10.33-1.39-20.66-2.73c-67.37-8.72-135-15.19-202.77-20.18q-56.24-4.16-112.54-7.05l-15.42,2.07-13.86,5.85c-10.92,6.39-18.89,16.24-23.75,27.75a28.93,28.93,0,0,0-4,14.64,29.27,29.27,0,0,0,0,15.43c1.67,12.37,6.7,24.46,16,33.31,36.29,34.71,77.41,63.91,117.26,94.34,16.65,13.07,32.79,26.76,49.48,39.78,14.94,11.65,30.13,23.48,42.67,37.77,1.1,1.66,2.15,3.35,3.13,5.08.24.87.45,1.74.66,2.61.89,13.51.28,27.16,1.14,40.66,1.14,17.83,1.91,35.68,3.1,53.5,2.67,40.31,6.57,81.9,20.08,120.22,6.18,17.52,16.3,30.3,33.6,37.6a60.11,60.11,0,0,0,23.36,4.83,55.06,55.06,0,0,0,28.28-7.76c16.58-9.83,31.21-22.62,46.24-34.71,24.29-17.62,52.14-30.45,78.49-44.58,12.49-6.7,25.74-13,37.16-21.48,10.93-8.09,21.2-16.91,31.76-25.43,1.1-.79,2.22-1.55,3.34-2.3,2.81.83,5.58,1.77,8.33,2.8,9.11,4.2,18,8.85,27,13.42,14.29,7.31,29.26,13.17,44.1,19.29,65.35,27.94,129.12,59.63,187.73,100.1l13.86,5.85a44.88,44.88,0,0,0,13.49,2.12,43.9,43.9,0,0,0,9.64-1.08c12.18-1.64,24.76-6.64,33.32-16a69,69,0,0,0,14.92-25.6c4.58-14.16,1.31-32.06-5.85-44.71-14.55-25.75-31.43-50-48.85-73.88-15.63-21.43-32.51-41.8-48.87-62.64-7.58-10.06-14.83-20.48-20.67-31.64,1.54-5.11,3.31-10.18,4.9-15.15,2.14-6.68,4.54-13.27,7.13-19.78,23.81-53.23,58.75-100.75,94.19-146.81,23.34-30.11,47.14-59.93,69.06-91.09l5.85-13.86q1-7.71,2.08-15.42a57.48,57.48,0,0,0-12.46-35.16,55.26,55.26,0,0,0-23.21-17.87,58.39,58.39,0,0,0-37.78-2.93c-24.18,6.13-47.49,15.11-70.62,24.33-20.46,8.16-41.24,15.36-61.93,22.91-37.43,13.65-75.18,28.06-110.53,46.77,0-3.42.06-6.84.18-10.27.9-27.4,3.08-54.94.83-82.33a280.26,280.26,0,0,0-4.77-34.89c-2.26-10.68-6.62-20.62-11.19-30.52a58.24,58.24,0,0,0-20.82-20.81,43.18,43.18,0,0,0-21.57-6.89,44,44,0,0,0-9.64-1.08Z" transform="translate(-398.09 -219.82)"/></svg>