<?xml version="1.0" encoding="utf-8"?>
<!-- Generator: Adobe Illustrator 26.0.1, SVG Export Plug-In . SVG Version: 6.00 Build 0)  -->
<svg version="1.1" id="Layer_1" xmlns="http://www.w3.org/2000/svg" xmlns:xlink="http://www.w3.org/1999/xlink" x="0px" y="0px"
	 viewBox="0 0 122.7 122.7" style="enable-background:new 0 0 122.7 122.7;" xml:space="preserve">
<style type="text/css">
	.st0{fill:#FFFFFF;}
	.st1{display:none;}
	.st2{display:inline;}
	.st3{stroke:#131C06;stroke-width:0.7204;}
	.st4{stroke:#131C06;stroke-width:0.7405;}
	
		.st5{clip-path:url(#SVGID_00000003821632860935236800000012254221273807516602_);fill:none;stroke:#0A0A09;stroke-width:18;stroke-linecap:round;}
</style>
<g id="Layer_2_00000083789600639708447180000000266673745190085563_">
	<circle class="st0" cx="61.3" cy="61.3" r="61.3"/>
</g>
<g id="Layer_1_00000127745772581792167880000009400365218940315582_">
	<g id="Layer_2_1_" class="st1">
		<g class="st2">
			<path d="M80.5,153.4c4.6-5.7,9.5-14.9,13.8-20.8c-5.7,5.1-10.7,14.2-16,19.8L80.5,153.4z"/>
			<path d="M80.4,156.2c4.6-5.1,8.3-14.4,18-17.3c-10.1,1.5-14.3,11-19.8,15.9L80.4,156.2z"/>
			<path d="M79.7,158.1c6.4-3.6,14.4-10.2,20.6-14.1c-7.2,2.6-15.2,9.1-22.2,12.3L79.7,158.1z"/>
			<path d="M26.4,169.4l-18.2-13l-1.3-1.1l3.7,2.1L28,169L26.4,169.4z"/>
			<path d="M35.5,169.4c-5.7-4.6-25.4-21.6-30.9-26.5c6.7,3.8,26.4,20.7,32.8,25L35.5,169.4z"/>
			<path d="M39,169.6l-17.4-18.9l-1.1-1.3l3.4,2.5l18,17.5L39,169.6z"/>
			<path d="M38.4,167.8c-0.5-7.3-5-29.3-5.1-36.6c1.8,7.5,5.4,29.9,6.5,37.4L38.4,167.8z"/>
			<path d="M1.5,168.9l18.6,0.3l6.1-1.1l5.7-1.2l5.4,0.3l2,0.9l1.5,0.3l-0.2-0.4l0.6,4.4L19.8,171l-7.4-0.6l-5.6,0.3l-2.4-1.3
				L1.5,168.9z"/>
			<path d="M41.4,168.9l-15.2-26.2l-0.8-1.6l2.6,3.3l14.9,24.3L41.4,168.9z"/>
			<path d="M47-31.9l-7.8-6h-1.3l0.5,1l7.9,6.9L47-31.9z"/>
			<path d="M66.5-41l1.2-4.7l1.3-0.5l-0.4,0.9l-0.8,4.2L66.5-41z"/>
			<path d="M71.5-37.3l2.4-4.3l2.2-1.1l-0.8,0.9l-1.8,3.7L71.5-37.3z"/>
			<path d="M43.9-7.2l-12-0.3l-1.3,1l1.2,0.6l12.8,1.2L43.9-7.2z"/>
			<path d="M45.1-11.1l-9.7-1.7l-1.1,0.6l0.9,0.6l10.2,2.5L45.1-11.1z"/>
			<path d="M45.9,0.2L37,0.3l-1.5-1.1l1.8,0.2l7.9-0.3L45.9,0.2z"/>
			<path d="M84.5-19.9l6.4-0.6l-0.3-1.6l-7.5,0.3L84.5-19.9z"/>
			<path d="M10.1,21.5l-5.4-8.2l-1.2-0.4L3.7,14l5.2,9.2L10.1,21.5z"/>
			<path d="M15.7,23l2.4-9.5l1-0.8l0.2,1.1l-1.9,10.3L15.7,23z"/>
			<path d="M25,30.4l9.4-2.7l1.2,0.5l-0.9,0.7l-9.9,3.5L25,30.4z"/>
			<path d="M27.5,43.5c2.6-0.1,5.3,0,7.9,0c0.9,0,0.5,0,1.3,0c0.1,0-0.2,1.2-0.3,1.2c-0.8,0-0.4,0-1.3,0c-2.6,0-5.3,0.1-7.9,0
				C27.1,44.7,27.4,43.5,27.5,43.5L27.5,43.5z"/>
			<path d="M120.5,41.8c2-0.7,3.9-1.8,5.9-2.6c0.2-0.1,0.7-0.3,0.8-0.4c0.6-0.4,1.2-0.7,1.7-1c0.1-0.1,0.8,0.9,0.8,1
				c-0.5,0.3-1.1,0.6-1.7,0.9c-0.5,0.3-0.4,0.1-0.9,0.5c-2,0.9-3.9,2-6,2.6C121.1,42.9,120.5,41.8,120.5,41.8L120.5,41.8z"/>
			<path d="M76.8,133.5c2.7-0.1,5.4-0.1,8.1,0c0.7,0,1.3,0,2,0s1.3,0,2,0c0.1,0-0.2,1.2-0.3,1.2c-0.7,0-1.3,0-2,0s-1.4,0-2,0
				c-2.7,0.1-5.4,0.1-8.1,0C76.4,134.7,76.8,133.5,76.8,133.5L76.8,133.5z"/>
			<path d="M45.4,128.2c-2.5-0.2-5-0.4-7.5-0.4c-0.2,0-0.4,0-0.7,0c-0.1,0-0.6-1.1-0.5-1.1c0.5-0.1,1-0.1,1.5-0.1
				c2.5,0,5.1,0.2,7.6,0.5C45.9,127.1,45.5,128.3,45.4,128.2L45.4,128.2z"/>
			<path d="M65.1,147.4c0.3,0,0.7-0.1,1-0.1c0.1,0,0.5,1.2,0.4,1.2c-0.3,0-0.7,0.1-1,0.1C65.4,148.7,65,147.5,65.1,147.4L65.1,147.4
				z"/>
			<path d="M68.3,154c2.2,0.2,4.5,0.2,6.7,0.8c0.2,0.1,0.5,0.1,0.7,0.2c0.1,0-0.4,1.1-0.5,1.1c-0.3,0-0.5-0.1-0.8-0.1
				c-2.2-0.4-4.4-0.4-6.6-0.7C67.8,155.1,68.2,153.9,68.3,154L68.3,154z"/>
			<path d="M70.7,162c2.1,0.5,4.2,0.9,6.1,1.9c0.1,0.1-0.7,1.1-0.7,1c-1.9-0.8-3.9-1.2-5.9-1.8C70.1,163.2,70.7,162,70.7,162
				L70.7,162z"/>
			<path d="M97.8,60.6c-2.3-0.6-4.6-1-6.9-1.6c0.7-0.1-0.9-0.1-0.7-0.1c0.1,0,0.2,0,0.3,0c0,0,0.1-0.1,0.1,0
				C90,59.1,90.5,59,89.7,59c-0.8-0.2-1.6-0.2-2.4-0.2h-0.1c-0.1,0-0.4-1.2-0.3-1.2c0.3,0,0.5,0,0.8,0c0.9,0,1.7,0.1,2.5,0.3
				c-0.1,0-0.2,0-0.2,0S89.8,58,89.9,58s0.2-0.1,0.3-0.2c0.5-0.1,0.9,0,1.4,0.1c2.3,0.5,4.7,0.9,6.9,1.6
				C98.4,59.5,97.8,60.6,97.8,60.6L97.8,60.6z"/>
			<path d="M128.3,62.7c2.1-0.1,4.3,0,6.4,0c0.1,0,0.3,0,0.4,0c0.1,0-0.2,1.2-0.3,1.2s-0.3,0-0.4,0c-2.1,0-4.3,0.1-6.4,0
				C127.9,63.9,128.2,62.7,128.3,62.7L128.3,62.7z"/>
			<path d="M10.1,88.3c-2,1.9-4,3.7-6.3,5.2c-0.4,0.3-0.9,0.5-1.3,0.8l0.3-1.6C5,91.2,7,89.3,9,87.6C9,87.6,10.2,88.3,10.1,88.3
				L10.1,88.3z"/>
			<path d="M64.8,96.5c0.9,0.4,1.8,1.2,2.7,1.8c0.2,0.1,0.1,0,0.3,0.2c0,0.1-0.2,1.6-0.3,1.5c-0.1,0,0,0-0.3-0.1
				c-0.9-0.5-1.8-1.3-2.8-1.8C64.5,98.1,64.7,96.5,64.8,96.5L64.8,96.5z"/>
			<path d="M91.9,74c2.8,0.7,5.5,2,8.3,2.5c1.3-0.2-0.2,0.1,0.4-0.1c0.1-0.1,1,1.4,0.9,1.5c-0.6,0.3-1.3,0.3-2,0.3
				c-2.9-0.5-5.7-1.7-8.5-2.6C90.9,75.5,91.8,74,91.9,74L91.9,74z"/>
			<path d="M96.5,28.3c1.2,1.2,2.2,2.6,3.4,3.9c0.7,0.8,1.5,1.5,2.1,2.4c0.5,0.6,0.3,0.8,0.1,1.5c0,0.1-1.6-0.6-1.6-0.7
				c0.7-1.2,0.5,1,0,0.1c-0.7-0.8-1.5-1.5-2.2-2.3c-1.1-1.2-2.1-2.6-3.2-3.8C95,29.3,96.4,28.2,96.5,28.3L96.5,28.3z"/>
			<path d="M114,32.6c1.4-2.3,2.6-4.8,4.4-6.7l0.8-0.5l-3.7,8C115.6,33.5,114,32.7,114,32.6L114,32.6z"/>
			<path d="M27.9,77.3c1.9-1.9,3.7-3.9,6-5.4l0.9-0.3l-5.6,6.8C29.2,78.5,27.8,77.4,27.9,77.3L27.9,77.3z"/>
			<path d="M0.5,33.8c-2.7-0.1-5.4-0.4-8.1,0l-0.9,0.4l8.7,1.4C0.4,35.6,0.6,33.8,0.5,33.8L0.5,33.8z"/>
			<path d="M47.1,120.5c-2.7-0.1-5.4-0.4-8.1,0l-0.9,0.4l8.7,1.4C47,122.3,47.2,120.6,47.1,120.5L47.1,120.5z"/>
			<path d="M61.1,135.7c-1.1-0.1-2.2-0.4-3.2,0l-0.3,0.4l3.5,1.4C61,137.5,61.1,135.8,61.1,135.7L61.1,135.7z"/>
			<path d="M61.6-36.1c-1.6,1.5-3.7,2.1-5.7,3.6s-3.5,3.9-3.8,8.8l0,0c-1,19.7,3,33.5,6.3,49.1c2.5,16.4,1.3,48.2-4.8,63.3l0,0v0.1
				c-12,35.7,2.3,54.2,5.5,79.4l1.3-0.2c-7.1-32.1-9.7-55.8-5.5-78.9l0,0c7.9-18.7,9-40.5,6.8-63.8l0,0l0,0
				c-2.5-13.2-12.2-49.9-4.8-56.7C58.3-33.2,59.7-33.7,61.6-36.1L61.6-36.1z"/>
			<path d="M69.5-31.2c2,8.8,5.4,17.8,6.1,26.3C76.3,3.6,74.4,11,73.8,19c1.6-10.2,5.5-21.8,4.8-30.5C77.8-20.3,72.5-24.7,69.5-31.2
				L69.5-31.2z"/>
			<path d="M74.8,42.6c2,25.3-8.6,39.3-9.3,47.8c-0.7,8.5,6.6,38.3,2.5,48.5c2.6-14.2-6.2-46.4-5.5-55.1
				C63.3,75,72.4,71.8,74.8,42.6L74.8,42.6z"/>
			<path d="M106.2,41.8c-5.1,18.2,0.7,30,0,36.3s-3.2,11.5-4.8,17.2c2.6-7.2,7.2-15.2,7.9-21.7C110,67.2,103.8,63.5,106.2,41.8
				L106.2,41.8z"/>
			<path d="M118.4,44.9c2.4,14.5,4.2,28.9,0.6,42.8l3.2-2.6C125.6,71.1,122.5,57.9,118.4,44.9L118.4,44.9z"/>
			<path d="M7.4,82.6c-2.5,0.8-5,1.5-7.7,1.9c-0.5,0.1-1,0.1-1.5,0.1l0.7-1.1c2.6-0.4,5-1.2,7.5-1.8C6.5,81.7,7.5,82.6,7.4,82.6
				L7.4,82.6z"/>
			<path d="M-9.7,52.7c2.6-0.1,5.3,0,7.9,0c0.9,0,0.5,0,1.3,0c0.1,0-0.2,1.2-0.3,1.2c-0.8,0-0.4,0-1.3,0c-2.6,0-5.3,0.1-7.9,0
				C-10.1,53.9-9.8,52.7-9.7,52.7L-9.7,52.7z"/>
			<path d="M0.1,55.8c-2.7-0.1-5.4-0.4-8.1,0l-0.9,0.4l8.7,1.4C0,57.6,0.2,55.8,0.1,55.8L0.1,55.8z"/>
			<g transform="matrix(.56098 0 0 .56098 -318.63 -28.483)">
				<path d="M770.1,369.6c5.9-11.7,11.1-29.4,16.4-41.4c-8.1,11.1-13.4,28.7-20.5,40.4L770.1,369.6z"/>
				<path d="M770.9,367.9c8.3-9.1,14.8-25.7,32.1-30.9c-17.9,2.7-25.5,19.6-35.4,28.3L770.9,367.9z"/>
				<path d="M769.7,371.2c11.4-6.4,25.7-18.2,36.8-25.1c-12.9,4.7-27.1,16.3-39.6,22L769.7,371.2z"/>
				<path d="M768.3,369.2c2.7-12.8,3.3-31.3,5.3-44.2c-5,12.7-5.6,31.1-9.6,44.3L768.3,369.2z"/>
			</g>
			<path d="M27.5,175.5c5.6-0.6,11.3-0.9,16.9-0.9c2.8,0,5.6,0.2,8.4,0.3c2.2,0,4.3,0,6.5-0.1c2.5-0.2,5,0.6,7.5,0.9
				c0.8,0.1,1.6,0.1,2.4,0.1c0.1,0,0.3,0.8,0.2,0.8c-1,0-1.9,0-2.9-0.1c-2.3-0.3-4.6-1-6.9-0.9c-2.3,0-4.6,0.1-6.9,0
				c-2.7-0.1-5.3-0.3-8-0.3c-5.6,0.1-11.3,0.4-16.9,0.9C27.7,176.4,27.4,175.6,27.5,175.5L27.5,175.5z"/>
			<path d="M62.6,182.9c-5.6,0-11.2,0.3-16.8-0.3c-0.9-0.2-2.1-0.1-2.8-0.8c-0.2-0.2-0.3-0.6-0.6-0.8c-2,0-4-0.3-6-0.6
				c-2.8-0.3-5.6-1.1-8.4-1.7c-1,0-1.7-0.5-2.4-1.1c0,0,0.6-0.6,0.6-0.5c0.6,0.6,1.3,0.9,2.2,0.9c2.8,0.6,5.5,1.4,8.3,1.7
				c1.5,0.2,2.9,0.4,4.4,0.5c0.5,0.1,1,0,1.4,0.1c0.2,0,0.3,0.1,0.5,0.2c0.2,0.2,0.3,0.5,0.5,0.7c0.7,0.6,1.8,0.4,2.6,0.6
				c5.4,0.5,10.9,0.3,16.3,0.4C62.4,182.1,62.6,182.9,62.6,182.9L62.6,182.9z"/>
			<path d="M35,177.6c6.5,1.2,13,1.7,19.6,1.8c3.2,0,6.4-0.2,9.6-0.5c2.2,0.1,4.3-0.2,6.5-0.5c2.8-0.2,5.6-0.7,8.4-1.1
				c1-0.2,2-0.1,3,0c0.1,0-0.2,0.8-0.3,0.8c-0.8-0.1-1.6-0.1-2.4,0c-2.8,0.5-5.6,1-8.4,1.2c-2.2,0.3-4.3,0.6-6.5,0.5
				c-3.4,0.4-6.7,0.7-10.1,0.6c-6.6-0.1-13.2-0.5-19.7-1.9C34.6,178.3,35,177.6,35,177.6L35,177.6z"/>
			<path d="M61.8,174.1c-5.4,0.2-10.7-0.2-16.1-0.8c-2.8-0.4-5.5-0.3-8.3-0.1c-3.4,0-6.7,0.6-10,0.9c-2.6,0.1-5.4,0.5-8-0.1
				c-2.8-1.1-5.8-1.5-8.7-1.9c-4.3-0.5-8.6-1.3-13-1.6c-0.2,0-0.4,0-0.6,0c-0.1,0-0.3-0.8-0.2-0.8c0.4,0,0.7,0,1.1,0
				c4.4,0.2,8.7,1.1,13,1.6c3,0.5,5.9,0.9,8.8,2c2.4,0.6,4.9,0.2,7.3,0.1c3.3-0.4,6.7-1,10-0.9c2.9-0.1,5.9-0.3,8.8,0.1
				c5.2,0.5,10.4,0.9,15.6,0.8C61.6,173.3,61.8,174.1,61.8,174.1L61.8,174.1z"/>
			<path d="M46.5,177c4.6-1.1,9.4-1.6,14.1-2.2c3.1-0.2,6.3-0.6,9.4-0.9c0.5,0.1,5-0.8,2.8,0.9c-0.3,0.2-0.7,0.2-1,0.3
				c-4.6,0.9-9.2,1.9-14,2.4c-5,0.4-10.2,0.1-14.9-1.7c-1.3-0.2-2-1.7-3.4-1.6c-1.3,0.2-2.5,0.3-3.4,1.3c0.5,1.3,5.3,2.3,6.5,2.6
				c4.6,0.9,9.2,1.3,13.8,2c2.7,0.2,5.4,0.7,8.1,1.1c1.5,0.1,2.9-0.1,4.4-0.2c2-0.3,4,0.1,5.9,0.6c1.8,0.5,3.7,0.5,5.6,0.4
				c1.6,0,3-0.7,4.5-1c1-0.2,2.1-0.3,3.1-0.2c0.3,0,0.6,0,0.9,0.1c0.1,0,0.4,0,0.3,0.1c-0.3,0.3-0.7,0.5-1.1,0.7
				c-3.3-0.5-6.5-1.3-9.7-2.1c-4.2-0.8-8.5-0.6-12.8-0.3c-2.1,0.1-4.1,0.4-6.2,0.3c0.2-0.3,0.3-0.6,0.6-0.8s0.6-0.1,0.9-0.2
				c0.5-0.1,1-0.2,1.5-0.3c2.5-0.5,5-1.1,7.5-1.6c5.2-0.7,10.3-2.2,15.6-2.7c0.4,0,1.7-0.2,2,0.4c0.3,0.4,0,0.8,0.4,1.1
				c2,0.9,4.3,0.9,6.5,1.2c2.1,0.3,4.1,0.6,6.2,0.5c1.3-0.1,2.6-0.2,3.8,0.2c0.1,0-0.3,0.8-0.4,0.7c-1.1-0.3-2.1-0.3-3.2-0.1
				c-2.3,0.1-4.5-0.1-6.8-0.5c-2.3-0.3-4.8-0.3-6.9-1.5c-0.1-0.2-0.3-0.4-0.3-0.6c0-0.1,0-0.2,0-0.4c0,0,0.1,0,0.1-0.1
				c-0.1-0.3-1.1-0.1-1.2-0.2c-5.2,0.6-10.3,2.1-15.5,2.8c-2.5,0.5-5,1.1-7.5,1.5c-0.5,0.1-1,0.2-1.5,0.2c-0.3,0.1-0.7,0.3-1,0.2
				s-0.4-0.5-0.6-0.7c1.9,0.2,3.8-0.4,5.7-0.4c4.5-0.3,9-0.5,13.4,0.4c3.2,0.7,6.4,1.6,9.6,2.1c0.2,0.3,0.3,0.5,0.5,0.8h-0.1
				c-0.2,0-0.3,0-0.5,0c-1,0-2,0-3,0.2c-1.5,0.3-3,1.1-4.6,1c-2.1,0.2-4.2,0.1-6.2-0.4c-1.8-0.4-3.5-0.8-5.3-0.5
				c-1.6,0.1-3.3,0.3-4.9,0.1c-2.7-0.4-5.4-0.8-8.1-1c-4.6-0.7-9.2-1.1-13.8-2c-1.5-0.4-6.3-1.4-6.8-3.2c-0.1-0.2,0-0.4,0.1-0.7
				c1.1-1.3,2.7-1.6,4.3-1.7c1.4,0.1,2.2,1.3,3.6,1.6c4.6,1.6,9.4,1.9,14.2,1.5c4.7-0.5,9.3-1.5,13.9-2.3c0.9-0.2,1.1-0.6,1.7,0.3
				c0,0-0.3,0-0.8,0c-0.9,0-1.1,0-2,0.1c-3.1,0.3-6.3,0.6-9.4,0.9c-4.7,0.6-9.4,1.1-14,2.1C46.8,177.8,46.5,177,46.5,177L46.5,177z"
				/>
			<g>
				<path class="st3" d="M57.5,163.6c0,6.4-6.9,8.2-15.6,8.2s-16-1.9-16-8.2c0-6.4,7.1-11.5,15.8-11.5S57.5,157.2,57.5,163.6
					L57.5,163.6z"/>
				<path class="st4" d="M109.8,167.1c0,6.7-6.9,8.7-15.6,8.7s-16-2-16-8.7s7.1-12.2,15.8-12.2C102.7,154.9,109.8,160.3,109.8,167.1
					L109.8,167.1z"/>
			</g>
		</g>
	</g>
	<g>
		<g>
			<g>
				<defs>
					<circle id="SVGID_1_" cx="61.3" cy="61.3" r="61.3"/>
				</defs>
				<clipPath id="SVGID_00000008862808750470993950000017075069391360476348_">
					<use xlink:href="#SVGID_1_"  style="overflow:visible;"/>
				</clipPath>
				
					<path style="clip-path:url(#SVGID_00000008862808750470993950000017075069391360476348_);fill:none;stroke:#0A0A09;stroke-width:18;stroke-linecap:round;" d="
					M28.8,67.1c0,0-0.1,0.5-0.1,0.8s-0.1,0.4,0.2,0.4s1.5,0.8,2.5,1.6s1.3,0.7,1.4,1.7c0.1,0.9,0.1,2.2-1,4.4
					c-1.2,2.2-2.7,4.1-3.3,6.6s0.4,4.3,2,6.3s2.1,3.1,2.3,5.1s-0.8,5.5-1.8,7.8c-0.9,2.3-1.8,3.3-2.1,5.8c-0.3,2.5,0.1,8.8,0.1,8.8
					l1.3-3.4"/>
				
					<path style="clip-path:url(#SVGID_00000008862808750470993950000017075069391360476348_);fill:none;stroke:#0A0A09;stroke-width:18;stroke-linecap:round;" d="
					M58.9,21.5c0,0-1.2-1.7-0.9-2.2c0.3-0.5,1.3,0.6,1.5,0.8c0.2,0.2,1.8,8.7,1.7,11.9c-0.1,3.1-1.2,7.5-3.4,12.3S55.2,54.8,55.5,56
					c0.3,1.2,2.7,3.9,6,5.7c3.3,1.8,3.3,2.6,3.5,4.1s0.5,3.1-0.2,4.9s-4,7.5-4.6,11.4s0.2,8.7,1.4,11.3c1.2,2.6,1.4,6.6,0.9,8.7
					c-0.4,2.1-1.4,5.7-2.6,7.5s-0.9,1.2-2,3.4c-1.1,2.2,0.3,12.1,0.3,12.1"/>
				
					<path style="clip-path:url(#SVGID_00000008862808750470993950000017075069391360476348_);fill:none;stroke:#0A0A09;stroke-width:18;stroke-linecap:round;" d="
					M103.4,48.7c0,0-0.4-1.3-0.6-1.3s0.1,3.4,0.1,3.9s-0.6,1.5-0.5,3.5c0.1,2,1.6,7.6,2.2,9.3c0.6,1.8,0.6,2.2,0.5,2.6
					c-0.1,0.4-0.2,2.2-0.5,2.9s-2.6,2.7-3.3,3.4c-0.6,0.6-4.2,1.9-6.1,3.7c-1.9,1.8-1.8,2.4-3.6,3.4c-1.8,0.9-2.7,0.9-3.9,0.6
					c-1.2-0.3-1.6-0.7-1.7,0.2c-0.1,0.9-0.2,1.8-0.2,2.3s0,1.9,0.3,2.7c0.3,0.8,1.8,4.9,2.2,7.6c0.4,2.6,0.8,5.4,0.3,13.5
					s-0.4,7.7-0.3,8.1c0.1,0.4,0.2,0.2,0.2,0.2"/>
			</g>
		</g>
	</g>
</g>
</svg>
